<svg width="200" height="200" viewBox="0 0 200 200" fill="none" xmlns="http://www.w3.org/2000/svg">
<ellipse cx="100" cy="99.5" rx="83" ry="86.5" fill="#3590CE"/>
<path d="M157.906 85.472C157.308 71.608 155.54 58.934 152.526 49.276L156 18L134.832 27.77C125.518 22.804 113.694 22 100 22C86.306 22 74.482 22.804 65.168 27.77L44 18L47.474 49.276C44.46 58.934 42.69 71.608 42.094 85.472C41.86 90.902 42.06 96.348 42.692 101.746L45.754 127.86C47.14 139.686 52.028 150.83 59.792 159.87L71.932 174C80.86 182.91 89.366 182.236 100 182.036C110.634 182.236 119.14 182.91 128.068 174L140.206 159.868C147.97 150.828 152.858 139.684 154.244 127.858L157.306 101.744C157.94 96.348 158.14 90.9 157.906 85.472Z" fill="#444445"/>
<path d="M93.968 184.134C85.694 184.134 78.234 183.116 70.516 175.418L58.272 161.174C50.22 151.796 45.202 140.356 43.766 128.092L40.704 101.978C40.062 96.498 39.856 90.916 40.092 85.386C40.712 71.034 42.556 58.496 45.438 49.082L42.01 18.22C41.93 17.502 42.244 16.798 42.83 16.376C43.414 15.954 44.182 15.878 44.84 16.182L65.12 25.542C74.32 20.956 85.754 19.998 100 19.998C114.246 19.998 125.682 20.956 134.88 25.542L155.16 16.182C155.816 15.88 156.588 15.954 157.17 16.376C157.756 16.798 158.07 17.502 157.99 18.22L154.56 49.08C157.44 58.494 159.286 71.034 159.906 85.384C160.142 90.914 159.938 96.496 159.294 101.976L156.232 128.09C154.796 140.352 149.778 151.792 141.726 161.172L129.588 175.304C120.406 184.47 111.684 184.288 101.578 184.07L99.962 184.036L98.42 184.07C96.908 184.102 95.426 184.134 93.968 184.134ZM46.38 21.304L49.464 49.054C49.494 49.328 49.468 49.606 49.386 49.872C46.536 59.002 44.706 71.342 44.094 85.558C43.868 90.876 44.064 96.242 44.682 101.512L47.744 127.626C49.088 139.094 53.78 149.792 61.312 158.564L73.45 172.696C81.214 180.434 88.778 180.274 98.334 180.068L99.96 180.034L101.662 180.068C111.228 180.278 118.786 180.434 126.652 172.584L138.686 158.564C146.22 149.792 150.91 139.094 152.254 127.626L155.316 101.51C155.934 96.242 156.13 90.874 155.904 85.556C155.29 71.34 153.46 59 150.612 49.87C150.53 49.606 150.504 49.328 150.534 49.052L153.618 21.302L135.67 29.586C135.098 29.848 134.44 29.832 133.888 29.536C125.27 24.944 114.106 24.002 99.998 24.002C85.89 24.002 74.724 24.944 66.108 29.536C65.558 29.83 64.898 29.848 64.326 29.586L46.38 21.304Z" fill="#1F212B"/>
<path d="M113 103L101 93L89 103L101 101L113 103Z" fill="#C12CFF"/>
<path d="M113 104C112.946 104 112.89 103.996 112.836 103.986L101 102.014L89.164 103.986C88.722 104.054 88.28 103.826 88.092 103.416C87.902 103.006 88.014 102.52 88.36 102.23L100.36 92.23C100.732 91.922 101.27 91.922 101.642 92.23L113.642 102.23C113.988 102.52 114.1 103.006 113.91 103.416C113.744 103.776 113.386 104 113 104ZM101 100C101.054 100 101.11 100.004 101.164 100.014L109.528 101.408L101 94.302L92.472 101.408L100.836 100.014C100.89 100.006 100.946 100 101 100Z" fill="#1F212B"/>
<path d="M63.66 92.864L76.872 95.546L83.192 91.332L61.744 81.566L63.66 92.864Z" fill="white"/>
<path d="M76.874 96.546C76.808 96.546 76.742 96.54 76.674 96.526L63.462 93.846C63.058 93.762 62.746 93.44 62.674 93.032L60.758 81.734C60.698 81.37 60.842 81 61.134 80.774C61.426 80.55 61.822 80.502 62.158 80.656L83.606 90.422C83.936 90.572 84.158 90.89 84.188 91.252C84.218 91.614 84.05 91.962 83.746 92.164L77.428 96.376C77.262 96.488 77.068 96.546 76.874 96.546ZM64.532 92.02L76.664 94.482L81.14 91.496L63.044 83.256L64.532 92.02Z" fill="#1F212B"/>
<path d="M57.622 136.688C57.572 136.688 57.52 136.684 57.47 136.676C56.926 136.594 56.548 136.084 56.632 135.538L57.694 128.522C57.748 128.158 58 127.854 58.346 127.73L68.286 124.192L76.106 108.552C76.356 108.058 76.954 107.862 77.448 108.104C77.942 108.352 78.142 108.952 77.896 109.446L69.896 125.446C69.78 125.676 69.58 125.854 69.338 125.942L59.582 129.414L58.61 135.838C58.534 136.334 58.108 136.688 57.622 136.688Z" fill="#1F212B"/>
<path d="M55.002 154C54.952 154 54.9 153.996 54.85 153.988C54.306 153.906 53.928 153.396 54.012 152.85L55.554 142.66C55.634 142.114 56.148 141.73 56.692 141.822C57.236 141.904 57.614 142.414 57.53 142.96L55.988 153.15C55.914 153.644 55.488 154 55.002 154Z" fill="#1F212B"/>
<path d="M96 23V44C96 46.21 97.79 48 100 48C102.21 48 104 46.21 104 44V23H96Z" fill="#C12CFF"/>
<path d="M100 49.096C97.19 49.096 94.904 46.81 94.904 44V23C94.904 22.394 95.394 21.904 96 21.904H104C104.606 21.904 105.096 22.394 105.096 23V44C105.096 46.81 102.81 49.096 100 49.096ZM97.096 24.096V44C97.096 45.602 98.398 46.904 100 46.904C101.602 46.904 102.904 45.602 102.904 44V24.096H97.096Z" fill="#1F212B"/>
<path d="M76 176C76 176 75 147 75 143C49 125 44 102 44 102L43.106 95.736C43.106 95.736 61 123 83 135C82.734 141.156 81 171 81 179L76 176Z" fill="#C12CFF"/>
<path d="M81 180C80.822 180 80.644 179.952 80.486 179.858L75.486 176.858C75.194 176.684 75.012 176.374 75 176.034C74.96 174.892 74.068 148.96 74.004 143.524C48.35 125.55 43.074 102.444 43.024 102.212L42.116 95.878C42.05 95.414 42.316 94.966 42.752 94.8C43.184 94.634 43.682 94.794 43.942 95.186C44.12 95.456 61.958 122.382 83.48 134.12C83.816 134.302 84.018 134.66 84.002 135.04C83.928 136.72 83.746 140.166 83.52 144.448C82.914 155.902 82 173.208 82 179C82 179.36 81.806 179.692 81.492 179.87C81.34 179.958 81.17 180 81 180ZM76.98 175.422L80.02 177.246C80.156 170.214 80.968 154.83 81.522 144.346C81.724 140.544 81.89 137.404 81.974 135.576C64.918 126.048 50.274 107.422 44.686 99.732L44.99 101.86C45.028 102.016 50.228 124.636 75.568 142.18C75.84 142.364 76 142.672 76 143C76 146.636 76.844 171.42 76.98 175.422Z" fill="#1F212B"/>
<path d="M137.446 92.864L124.234 95.546L117.914 91.332L139.362 81.566L137.446 92.864Z" fill="white"/>
<path d="M124.234 96.546C124.038 96.546 123.846 96.488 123.68 96.378L117.36 92.166C117.058 91.964 116.89 91.616 116.918 91.254C116.948 90.892 117.17 90.574 117.5 90.424L138.948 80.658C139.286 80.504 139.678 80.55 139.972 80.776C140.264 81.002 140.41 81.37 140.348 81.736L138.434 93.034C138.364 93.442 138.052 93.764 137.646 93.848L124.434 96.528C124.368 96.538 124.3 96.546 124.234 96.546ZM119.964 91.498L124.442 94.484L136.574 92.022L138.058 83.26L119.964 91.498ZM137.448 92.864H137.468H137.448Z" fill="#1F212B"/>
<path d="M140.106 75L116.106 85L112.106 83V75C112.106 75 126.106 67 136.106 63C146.106 55 147.02 41.864 147.02 41.864C144.052 37.956 139.536 33.608 134.106 29C134.106 45 126.106 55 126.106 55L106.106 71V89L114.106 93L139.202 81.472L148.106 89L138.106 101L120.106 103L116.106 111L106.106 109H101H100.106H95L85 111L81 103L63 101L53 89L61.744 81.472L87 93L95 89V71L75 55C75 55 65.83 44.972 65.83 28.972C61.342 32.506 57.356 36.708 53.958 41.738C53.958 41.738 55 55.002 65 63.002C75 67.002 89 75.002 89 75.002V83.002L85 85.002L61 75.002L49 85.002V93.002L61 107.002L77 109.002L83 119.002L97 115.002H100.106H101H104.106L119 119.002L124.106 109.002L140.106 107.002L152.106 93.002V85.002L140.106 75Z" fill="#C12CFF"/>
<path d="M119 120C118.914 120 118.826 119.99 118.74 119.966L103.972 116H97.14L83.274 119.962C82.836 120.082 82.374 119.902 82.142 119.514L76.392 109.93L60.874 107.99C60.628 107.96 60.402 107.838 60.24 107.648L48.24 93.648C48.086 93.47 48 93.238 48 93V85C48 84.704 48.13 84.422 48.36 84.232L60.36 74.232C60.648 73.992 61.04 73.934 61.386 74.078L84.964 83.902L88 82.382V75.584C85.408 74.124 73.388 67.434 64.628 63.93C64.536 63.892 64.45 63.844 64.374 63.782C54.154 55.606 53.002 42.374 52.96 41.816C52.94 41.59 53.002 41.366 53.128 41.178C56.46 36.248 60.524 31.876 65.21 28.186C65.51 27.95 65.92 27.904 66.266 28.072C66.61 28.238 66.828 28.588 66.828 28.972C66.828 44.368 75.648 54.23 75.736 54.328L95.622 70.22C95.862 70.41 96 70.696 96 71V89C96 89.378 95.786 89.724 95.448 89.894L87.448 93.894C87.178 94.028 86.864 94.034 86.584 93.91L61.912 82.646L54.398 89.116L63.51 100.05L81.112 102.006C81.448 102.044 81.742 102.25 81.896 102.552L85.554 109.868L94.806 108.018L106.106 107.998L115.554 109.87L119.212 102.552C119.364 102.248 119.66 102.044 119.996 102.006L137.598 100.05L146.704 89.122L139.044 82.644L114.526 93.908C114.25 94.034 113.932 94.03 113.66 93.894L105.66 89.894C105.322 89.724 105.108 89.378 105.108 89V71C105.108 70.696 105.246 70.41 105.484 70.218L125.39 54.294C126.13 53.316 133.108 43.686 133.108 29C133.108 28.61 133.334 28.256 133.688 28.092C134.042 27.928 134.46 27.984 134.754 28.236C140.764 33.336 145.04 37.596 147.82 41.258C147.966 41.45 148.036 41.69 148.022 41.932C147.982 42.486 146.958 55.598 136.732 63.78C136.656 63.84 136.57 63.89 136.478 63.928C127.718 67.432 115.698 74.122 113.106 75.582V82.38L116.144 83.9L139.722 74.076C140.068 73.932 140.46 73.992 140.748 74.23L152.748 84.23C152.976 84.42 153.108 84.702 153.108 84.998V92.998C153.108 93.236 153.022 93.468 152.868 93.648L140.868 107.648C140.706 107.838 140.48 107.96 140.234 107.99L124.76 109.924L119.894 119.452C119.716 119.796 119.37 120 119 120ZM61.508 106.056L77.126 108.008C77.43 108.046 77.7 108.222 77.858 108.486L83.464 117.828L96.726 114.038C96.814 114.012 96.906 114 97 114H104.106C104.194 114 104.28 114.012 104.366 114.034L118.478 117.824L123.216 108.544C123.366 108.25 123.654 108.048 123.982 108.006L139.6 106.054L151.108 92.628V85.466L139.934 76.154L116.492 85.92C116.224 86.032 115.92 86.02 115.66 85.892L111.66 83.892C111.322 83.722 111.108 83.376 111.108 82.998V74.998C111.108 74.64 111.3 74.308 111.612 74.13C111.752 74.05 125.656 66.124 135.596 62.126C144.132 55.214 145.75 44.288 145.99 42.158C143.55 39.012 139.96 35.392 135.06 31.134C134.416 46.044 127.208 55.22 126.888 55.622C126.842 55.68 126.788 55.732 126.732 55.778L107.106 71.478V88.38L114.124 91.89L138.784 80.56C139.14 80.402 139.55 80.456 139.848 80.706L148.752 88.236C149.17 88.59 149.224 89.218 148.874 89.64L138.874 101.64C138.71 101.838 138.474 101.966 138.218 101.994L120.758 103.934L117 111.448C116.798 111.852 116.352 112.076 115.91 111.982L105.91 109.982L95 110L85.196 111.98C84.752 112.068 84.308 111.85 84.106 111.446L80.35 103.932L62.89 101.992C62.634 101.964 62.398 101.836 62.234 101.638L52.234 89.638C51.884 89.218 51.936 88.596 52.35 88.24L61.094 80.71C61.39 80.454 61.808 80.396 62.162 80.558L86.982 91.89L94 88.382V71.48L74.374 55.78C73.898 55.276 65.596 46.026 64.878 31.038C61.104 34.238 57.784 37.914 54.99 41.994C55.24 44.07 56.948 55.192 65.512 62.126C75.452 66.124 89.356 74.05 89.496 74.13C89.808 74.31 90 74.642 90 75V83C90 83.378 89.786 83.724 89.448 83.894L85.448 85.894C85.19 86.024 84.886 86.036 84.616 85.922L61.174 76.156L50 85.468V92.63L61.508 106.056Z" fill="#1F212B"/>
<path d="M146.104 154C145.618 154 145.192 153.644 145.118 153.15L141.528 129.414L131.77 125.942C131.534 125.858 131.336 125.686 131.22 125.462L126.348 116.114C126.092 115.624 126.284 115.02 126.772 114.766C127.26 114.512 127.868 114.698 128.122 115.19L132.812 124.19L142.764 127.732C143.11 127.856 143.362 128.16 143.416 128.524L147.096 152.852C147.18 153.398 146.804 153.908 146.258 153.99C146.206 153.996 146.154 154 146.104 154Z" fill="#1F212B"/>
<path d="M125.106 176C125.106 176 127 147 127 143C153 125 157.106 102 157.106 102L158 95.736C158 95.736 140.106 123 118.106 135C118.372 141.156 120.106 171 120.106 179L125.106 176Z" fill="#C12CFF"/>
<path d="M120.106 180C119.936 180 119.766 179.958 119.614 179.87C119.3 179.692 119.106 179.36 119.106 179C119.106 173.182 118.188 155.804 117.58 144.302C117.358 140.088 117.178 136.704 117.106 135.042C117.09 134.662 117.292 134.304 117.628 134.122C139.15 122.384 156.988 95.458 157.166 95.188C157.424 94.794 157.924 94.636 158.356 94.802C158.794 94.968 159.06 95.416 158.992 95.88L158.098 102.144C158.052 102.41 153.662 125.542 127.994 143.53C127.872 148.98 126.18 174.926 126.106 176.068C126.084 176.396 125.902 176.692 125.622 176.86L120.622 179.86C120.46 179.952 120.284 180 120.106 180ZM119.132 135.576C119.216 137.38 119.378 140.462 119.578 144.198C120.132 154.732 120.95 170.186 121.086 177.246L124.14 175.412C124.396 171.476 126 146.628 126 143C126 142.672 126.16 142.364 126.432 142.178C151.752 124.648 156.08 102.05 156.122 101.824L156.42 99.73C150.832 107.42 136.188 126.048 119.132 135.576ZM125.106 176H125.126H125.106Z" fill="#1F212B"/>
<path d="M97 64.096C96.76 64.096 96.518 64.016 96.316 63.856C96.214 63.776 86.198 55.748 80.224 49.774C80.104 49.654 80.014 49.508 79.96 49.346C75.95 37.316 75.904 25.496 75.904 25C75.904 24.396 76.394 23.906 77 23.904C77.606 23.904 78.096 24.394 78.096 25C78.096 25.118 78.144 36.808 81.96 48.408C87.866 54.276 97.586 62.066 97.684 62.144C98.156 62.522 98.232 63.212 97.856 63.684C97.638 63.956 97.32 64.096 97 64.096Z" fill="#1F212B"/>
<path d="M50.282 59.58C49.82 59.58 49.388 59.284 49.24 58.82C48.198 55.58 47.488 52.236 47.124 48.876C47.06 48.274 47.496 47.734 48.096 47.67C48.682 47.596 49.238 48.04 49.304 48.642C49.65 51.852 50.33 55.052 51.326 58.15C51.512 58.726 51.194 59.344 50.618 59.528C50.506 59.562 50.392 59.58 50.282 59.58Z" fill="#1F212B"/>
<path d="M55.874 71.174C55.542 71.174 55.214 71.024 54.998 70.738C54.936 70.654 53.454 68.672 51.756 65.142C51.492 64.598 51.722 63.942 52.268 63.68C52.81 63.422 53.47 63.646 53.728 64.192C55.324 67.508 56.734 69.4 56.748 69.42C57.112 69.904 57.014 70.59 56.532 70.954C56.334 71.1 56.104 71.174 55.874 71.174Z" fill="#1F212B"/>
<path d="M104.342 64.096C103.968 64.096 103.606 63.906 103.4 63.562C103.09 63.042 103.258 62.37 103.776 62.06C103.816 62.032 104.14 61.802 105.234 60.9C105.698 60.518 106.39 60.582 106.776 61.052C107.16 61.518 107.092 62.21 106.626 62.594C105.72 63.34 105.106 63.818 104.902 63.94C104.726 64.046 104.534 64.096 104.342 64.096Z" fill="#1F212B"/>
<path d="M109.454 59.884C109.142 59.884 108.832 59.752 108.616 59.494C108.226 59.032 108.286 58.34 108.748 57.952L109.726 57.134C110.392 56.58 111.026 56.05 111.866 55.322C112.322 54.928 113.01 54.972 113.41 55.43C113.806 55.886 113.76 56.578 113.302 56.974C112.448 57.716 111.802 58.254 111.124 58.818L110.156 59.626C109.954 59.8 109.704 59.884 109.454 59.884Z" fill="#1F212B"/>
<path d="M115.94 54.248C115.642 54.248 115.344 54.126 115.128 53.886C114.722 53.436 114.756 52.744 115.206 52.34C116.816 50.886 118.218 49.564 119.384 48.408C123.2 36.792 123.246 25.116 123.246 25C123.246 24.394 123.736 23.904 124.342 23.904C124.948 23.904 125.438 24.394 125.438 25C125.438 25.498 125.392 37.316 121.382 49.346C121.33 49.508 121.238 49.654 121.118 49.774C119.892 51 118.398 52.408 116.676 53.964C116.464 54.154 116.202 54.248 115.94 54.248Z" fill="#1F212B"/>
<path d="M144.064 71.174C143.834 71.174 143.604 71.102 143.406 70.954C142.924 70.59 142.826 69.904 143.19 69.42C143.25 69.338 149.282 61.18 150.634 48.642C150.698 48.04 151.256 47.594 151.842 47.67C152.444 47.734 152.88 48.274 152.814 48.876C151.392 62.046 145.202 70.388 144.94 70.738C144.724 71.022 144.396 71.174 144.064 71.174Z" fill="#1F212B"/>
<path d="M106 134H96C95.622 134 95.276 133.786 95.106 133.448L90.106 123.448C89.968 123.168 89.966 122.842 90.102 122.562C90.238 122.282 90.498 122.082 90.806 122.02L100.806 120.02C100.934 119.994 101.068 119.994 101.196 120.02L111.196 122.02C111.502 122.08 111.762 122.28 111.9 122.562C112.038 122.844 112.034 123.17 111.896 123.448L106.896 133.448C106.724 133.786 106.378 134 106 134ZM96.618 132H105.384L109.52 123.724L101 122.02L92.48 123.724L96.618 132Z" fill="#1F212B"/>
<path d="M114 183H88C87.662 183 87.346 182.83 87.162 182.544C86.976 182.26 86.95 181.902 87.086 181.592L95 163.786V156.884C95 156.332 95.448 155.884 96 155.884C96.552 155.884 97 156.332 97 156.884V164C97 164.14 96.97 164.278 96.914 164.406L89.54 181H112.46L110.478 176.538C110.254 176.034 110.482 175.442 110.986 175.218C111.49 174.994 112.082 175.22 112.306 175.726L114.914 181.594C115.05 181.904 115.024 182.26 114.838 182.546C114.654 182.83 114.338 183 114 183Z" fill="#1F212B"/>
<path d="M109.064 171.886C108.682 171.886 108.316 171.666 108.15 171.292L105.086 164.406C105.03 164.278 105 164.14 105 164V148C105 147.734 105.106 147.48 105.292 147.292L107 145.584V141H95V145.586L96.708 147.294C96.894 147.48 97 147.734 97 148V152.098C97 152.65 96.552 153.098 96 153.098C95.448 153.098 95 152.65 95 152.098V148.414L93.292 146.706C93.106 146.52 93 146.266 93 146V140C93 139.448 93.448 139 94 139H108C108.552 139 109 139.448 109 140V146C109 146.266 108.894 146.52 108.708 146.708L107 148.414V163.788L109.978 170.48C110.202 170.984 109.976 171.576 109.47 171.8C109.34 171.858 109.202 171.886 109.064 171.886Z" fill="#1F212B"/>
<path d="M109 172H93C92.448 172 92 171.552 92 171C92 170.448 92.448 170 93 170H109C109.552 170 110 170.448 110 171C110 171.552 109.552 172 109 172Z" fill="#1F212B"/>
</svg>
