<svg width="193" height="192" viewBox="0 0 193 192" fill="none" xmlns="http://www.w3.org/2000/svg">
<g filter="url(#filter0_d_0_1)">
<path d="M184 86C184 140.952 144.2 184 95.8752 184C47.5503 184 4 140.952 4 86C4 31.0477 47.5503 0 95.8752 0C144.2 0 184 31.0477 184 86Z" fill="#D32C21"/>
<path d="M183 86C183 140.494 143.558 183 95.8752 183C48.1405 183 5 140.439 5 86C5 58.8111 15.7637 37.5883 32.4696 23.1495C49.1923 8.69609 71.9194 1 95.8752 1C119.827 1 141.605 8.69323 157.384 23.1307C173.151 37.5569 183 58.781 183 86Z" stroke="black" stroke-width="2"/>
</g>
<path d="M145.485 42.5657V59.5133L150.842 55.0922C151.914 53.9869 152.628 52.8817 152.628 51.0395V47.3553C152.628 46.6184 152.628 45.8816 152.985 45.1447L155.486 39.9868C156.2 39.2499 156.2 38.5131 156.2 37.7762V32.9867L145.485 42.5657ZM45.4753 42.5657V59.5133L40.1176 55.0922C39.0461 53.9869 38.3318 52.8817 38.3318 51.0395V47.3553C38.3318 46.6184 38.3318 45.8816 37.9746 45.1447L35.4743 39.9868C34.76 39.2499 34.76 38.5131 34.76 37.7762V32.9867L45.4753 42.5657Z" fill="#B0BEC5"/>
<path d="M142.431 55.073V61.82L150.718 55.073C151.799 53.9485 152.52 52.824 152.52 50.9498V47.2015L142.431 55.073ZM47.3027 55.073V61.82L39.015 55.073C37.934 53.5737 37.2133 52.4492 37.2133 50.575V46.8267L47.3027 55.073Z" fill="#90A4AE"/>
<path d="M141.991 39.3135V46.9255C141.991 48.3754 141.276 49.8253 140.202 50.9128L134.836 54.9V67.5867L142.707 61.0621C144.496 59.6122 145.569 57.4373 145.569 54.9V45.8381C145.569 43.6632 146.642 41.1259 148.431 39.676L156.302 32.7889C156.302 31.7015 156.66 30.6141 157.376 29.8891L158.807 27.7143C159.522 26.9893 159.88 25.9019 159.88 24.8145V16.84L143.064 36.0512C142.349 36.7762 141.991 38.2261 141.991 39.3135ZM48.9689 39.3135V46.9255C48.9689 48.3754 49.6844 49.8253 50.7578 50.9128L56.1244 54.9V67.5867L48.2533 61.0621C46.4644 59.6122 45.3911 57.4373 45.3911 54.9V45.8381C45.3911 43.6632 44.3178 41.1259 42.5289 39.676L34.6578 32.7889C34.6578 31.7015 34.3 30.6141 33.5844 29.8891L32.1533 27.7143C31.4378 26.9893 31.08 25.9019 31.08 24.8145V16.84L47.8956 36.0512C48.6111 36.7762 48.9689 38.2261 48.9689 39.3135Z" fill="#CFD8DC"/>
<path d="M131.258 140.743V96.42H59.7022V140.743C59.7022 144.739 57.5556 148.009 54.3356 150.188C42.1711 157.818 31.08 169.08 31.08 169.08H159.88C159.88 169.08 148.789 157.818 136.624 150.188C133.404 148.372 131.258 144.739 131.258 140.743Z" fill="#1565C0"/>
<path d="M135.51 81.2782C135.51 81.2782 136.602 71.0467 146.428 71.0467C150.067 71.0467 150.067 80.9128 150.067 83.8361C150.067 87.4902 146.428 92.9714 146.428 94.7985V97.7218C146.428 101.376 140.969 107.953 135.51 107.953V81.2782ZM55.4498 81.2782C55.4498 81.2782 54.3581 71.0467 44.5325 71.0467C40.8933 71.0467 40.8933 80.9128 40.8933 83.8361C40.8933 87.4902 44.5325 92.9714 44.5325 94.7985V97.7218C44.5325 101.376 49.9911 107.953 55.4498 107.953C55.4498 107.588 55.4498 81.2782 55.4498 81.2782Z" fill="#FFA726"/>
<path d="M95.0257 45.6733C53.0106 45.6733 51.9333 45.6733 51.9333 45.6733C51.9333 59.0639 51.9333 120.226 51.9333 120.226C51.9333 123.484 53.3697 126.379 55.5244 128.55L77.4297 148.093C79.2252 149.903 81.7389 150.627 84.6117 150.627H105.081C107.594 150.627 110.108 149.541 112.263 148.093L134.168 128.55C136.682 126.379 137.759 123.484 137.759 120.226C137.759 120.226 137.759 59.0639 137.759 45.6733C138.118 45.6733 137.041 45.6733 95.0257 45.6733Z" fill="#FFB74D"/>
<path d="M95.48 9.92C53.022 9.92 51.9333 45.92 51.9333 45.92C51.9333 59.24 51.9333 120.08 51.9333 120.08C51.9333 123.32 53.3849 126.2 55.5622 128.36L62.82 134.48L59.1911 103.52C70.0778 103.52 91.8511 89.12 95.48 89.12C99.1089 89.12 120.882 103.52 131.769 103.52L128.14 134.48L135.398 128.36C137.938 126.2 139.027 123.32 139.027 120.08C139.027 120.08 139.027 59.24 139.027 45.92C139.027 45.92 137.938 9.92 95.48 9.92Z" fill="#1E88E5"/>
<path d="M82.1818 127.56L78.92 121.409C79.2824 121.409 85.4436 118.333 94.8667 118.333C104.29 118.333 110.813 121.409 110.813 121.409L107.552 127.56C107.552 127.56 102.478 125.168 94.5042 125.168C87.6182 125.168 82.5442 127.56 82.1818 127.56Z" fill="#FB8C00"/>
<path d="M139.027 120.09V92.7484C139.027 92.7484 133.22 97.0654 131.769 98.8642C129.229 101.742 128.14 103.541 128.14 107.139V134.48L135.398 128.364C137.575 126.206 139.027 123.328 139.027 120.09ZM51.9333 120.09V92.7484C51.9333 92.7484 57.7396 97.0654 59.1911 98.8642C61.7313 101.742 62.82 103.541 62.82 107.139V134.48L55.5622 128.364C53.3849 126.206 51.9333 123.328 51.9333 120.09ZM139.027 62.5289C139.027 74.0411 139.027 85.5533 139.027 85.5533C139.027 85.5533 135.398 81.9557 124.511 81.9557V25.1144C124.511 22.2363 123.422 19.3583 122.334 16.84C137.212 26.1936 138.664 42.7424 139.027 45.6204C139.027 50.2972 139.027 56.4131 139.027 62.5289ZM68.6262 16.84C67.5376 19.3583 66.4489 22.2363 66.4489 25.1144V81.9557C55.5622 81.9557 51.9333 85.5533 51.9333 85.5533C51.9333 85.5533 51.9333 74.0411 51.9333 62.5289C51.9333 56.4131 51.9333 50.2972 51.9333 45.6204C52.2962 42.7424 53.7478 26.5534 68.6262 16.84Z" fill="#1565C0"/>
<path d="M99.804 79.4083C103.407 73.6417 113.497 61.7479 129.351 60.6667C130.793 60.6667 132.234 61.3875 132.955 62.8292C134.036 65.3521 135.477 70.0375 135.477 78.6875C135.477 85.175 134.036 89.1396 132.955 91.3021C132.234 92.3833 130.793 93.1042 129.712 93.1042C114.938 92.7438 105.569 87.3375 101.245 84.4542C99.0833 83.3729 98.723 81.2104 99.804 79.4083ZM91.156 79.4083C87.5527 73.6417 77.4633 61.7479 61.6087 60.6667C60.1673 60.6667 58.726 61.3875 58.0053 62.8292C56.9243 65.3521 55.483 70.0375 55.483 78.6875C55.483 85.175 56.9243 89.1396 58.0053 91.3021C58.726 92.3833 60.1673 93.1042 61.2483 93.1042C76.022 92.7438 85.3907 87.3375 89.7147 84.4542C91.8767 83.3729 92.237 81.2104 91.156 79.4083Z" fill="#FFB74D"/>
<path d="M84.67 81.9313C84.67 81.9313 79.9857 85.8958 73.86 85.8958C67.7343 85.8958 63.05 82.6521 63.05 81.9313C63.05 78.6875 64.131 74.0021 70.2567 74.0021C76.3823 74.0021 84.67 81.9313 84.67 81.9313ZM106.29 81.9313C106.29 81.9313 110.974 85.8958 117.1 85.8958C123.226 85.8958 127.91 83.0125 127.91 81.9313C127.91 78.6875 126.829 74.0021 120.703 74.0021C114.578 74.3625 106.29 81.9313 106.29 81.9313Z" fill="#EEEEEE"/>
<path d="M88.2733 82.2917C76.022 77.6063 73.4997 67.875 64.8517 67.875C56.2037 67.875 55.8433 78.6875 55.8433 78.6875C55.8433 78.6875 58.726 75.0833 64.131 75.0833C72.0583 75.0833 78.184 82.2917 88.2733 82.2917ZM102.687 82.2917C114.938 77.6063 117.46 67.875 126.108 67.875C134.756 67.875 135.117 78.6875 135.117 78.6875C135.117 78.6875 132.234 75.0833 126.829 75.0833C118.902 75.0833 112.776 82.2917 102.687 82.2917Z" fill="#424242"/>
<path d="M70.2567 82.2917C70.2567 84.4542 71.698 85.8958 73.86 85.8958C76.022 85.8958 77.4633 84.4542 77.4633 82.2917C77.4633 80.1292 76.022 78.6875 73.86 78.6875C71.698 78.6875 70.2567 80.1292 70.2567 82.2917ZM120.703 82.2917C120.703 84.4542 119.262 85.8958 117.1 85.8958C114.938 85.8958 113.497 84.4542 113.497 82.2917C113.497 80.1292 114.938 78.6875 117.1 78.6875C119.262 78.6875 120.703 80.1292 120.703 82.2917Z" fill="#90CAF9"/>
<path d="M108.288 24.9133H82.6722L74.0133 59.3118L84.4761 61.82L86.6408 53.2204H104.319L106.484 61.82L116.947 59.3118L108.288 24.9133ZM89.5271 42.8292L91.331 35.6628H99.9898L101.794 42.8292H89.5271Z" fill="#CFD8DC"/>
<defs>
<filter id="filter0_d_0_1" x="0" y="0" width="188" height="192" filterUnits="userSpaceOnUse" color-interpolation-filters="sRGB">
<feFlood flood-opacity="0" result="BackgroundImageFix"/>
<feColorMatrix in="SourceAlpha" type="matrix" values="0 0 0 0 0 0 0 0 0 0 0 0 0 0 0 0 0 0 127 0" result="hardAlpha"/>
<feOffset dy="4"/>
<feGaussianBlur stdDeviation="2"/>
<feComposite in2="hardAlpha" operator="out"/>
<feColorMatrix type="matrix" values="0 0 0 0 0 0 0 0 0 0 0 0 0 0 0 0 0 0 0.25 0"/>
<feBlend mode="normal" in2="BackgroundImageFix" result="effect1_dropShadow_0_1"/>
<feBlend mode="normal" in="SourceGraphic" in2="effect1_dropShadow_0_1" result="shape"/>
</filter>
</defs>
</svg>
