<svg xmlns="http://www.w3.org/2000/svg" enable-background="new 0 0 66 66" viewBox="0 0 66 66"><path fill="#3590CE" d="M63.99771,33.25494c0,17.11822-13.87906,30.99728-30.99728,30.99728
				c-17.12365,0-31.00271-13.87906-31.00271-30.99728c0-17.12365,13.87906-31.00272,31.00271-31.00272
				C50.11865,2.25222,63.99771,16.13129,63.99771,33.25494z"/><path fill="#F1AD7E" d="M55.77771,54.28219c-5.66998,6.13-13.77997,9.97003-22.77997,9.97003s-17.10999-3.84002-22.78003-9.97003
				c3.42004-0.39001,6.92004-0.62,9.58002-2.76001c3.35999-2.69,2.40002-8.27997,2.40002-12.63995h21.58996
				c0,4.34998-0.94,9.94995,2.40002,12.63C48.85773,53.65219,52.35773,53.89218,55.77771,54.28219z"/><path fill="#F1AD7E" d="M33.62889,56.10523c-4.53695-0.13906-8.45087-3.56676-11.4244-6.99624s-4.89261-7.73572-5.59916-12.21947
				c-0.38788-2.4615-0.42055-4.972-0.87766-7.42158c-0.57349-3.07323-2.61891-5.61952-2.96339-8.72676
				c-0.17888-1.61354-0.2582-3.2381-0.23736-4.86139c0.01432-1.11541,0.11592-2.36208,1.07324-3.03457
				c1.10957-0.77944,3.17413-0.29947,4.235,1.28763c0.4934,0.73814,0.85087,1.62157,0.74888,2.50356
				c0.14985-1.13632,0.8643-2.18408,1.8674-2.7386c1.00309-0.55452,2.36062-0.74265,3.40259-0.26518
				c0.45659-1.61162,1.00146-3.22775,1.96227-4.59984c0.96082-1.37209,2.39635-2.48793,4.05435-2.72629
				c1.09645-0.15763,2.26973,0.07965,3.27754,0.53938c0.67284-1.95786,1.50461-4.20857,3.61755-4.91525
				c2.09507-0.70071,4.88055,0.54333,6.04949,4.20547c0.41619,1.30388,0.76806,2.72968,0.91955,4.08997
				c1.50603-2.53163,1.48953-4.16225,3.57363-4.99038c2.03735-0.80955,4.79144,0.47919,5.71641,4.07304
				c0.32358,1.25722,0.52335,2.74166,0.41917,4.03994c-0.53935,6.72163-1.51446,13.52899-2.81064,20.14648
				c-0.97196,4.96224-2.15667,10.00436-4.87844,14.26588C43.03315,52.02253,38.95572,56.2685,33.62889,56.10523z"/><path fill="#F0523C" d="M46.359 32.264c0 0-3.24801 3.66922-6.02121 3.66922-2.76678 0-4.0148-1.79745-4.0148-1.79745s2.24802-2.85386 5.0148-2.85386C44.11098 31.28191 46.359 32.264 46.359 32.264zM19.71531 32.264c0 0 3.24801 3.66922 6.02121 3.66922 2.76678 0 4.0148-1.79745 4.0148-1.79745s-2.24801-2.85386-5.0148-2.85386C21.96333 31.28191 19.71531 32.264 19.71531 32.264z"/><path fill="#FFF" d="M40.66145,42.66912c-4.77586,8.69548-9.55167,8.69548-14.32746,0
				C31.10981,44.0512,35.88562,44.0512,40.66145,42.66912z"/><line x1="43.735" x2="42.715" y1="10.226" y2="19.695" fill="#F1AD7E"/><line x1="33.148" x2="34.416" y1="6.846" y2="16.644" fill="#F1AD7E"/><line x1="23.854" x2="26.24" y1="13.633" y2="22.868" fill="#F1AD7E"/><line x1="18.584" x2="19.715" y1="16.636" y2="22.868" fill="#F1AD7E"/><path fill="#172540" d="M53.78003,9.26571c-0.84665-4.22808-4.88834-5.93542-7.01001-4.60998
				c-1.60004-0.78003-3.28003-1.42999-5.03003-1.91998c-1.63946-1.72291-4.0931-2.30376-6.08997-1.11999
				C16.72055,0.09251,1.25,15.07657,1.25,33.2557c0,8.23004,3.15002,15.75,8.32001,21.40002
				C9.94567,55.59373,19.13922,65.0057,33,65.0057c8.26146,0,15.92717-3.26307,21.34003-8.26001
				C61.29429,50.37154,64.75,41.8496,64.75,33.2557C64.75,23.68569,60.5,15.09572,53.78003,9.26571z M63.25,33.2557
				c0,7.78003-2.95001,14.87-7.78998,20.23999c-3.30869-0.36649-8.23057-0.81267-9.98999-3.97998
				c3.4413-4.62407,4.80045-10.25618,5.89996-15.88c0.95872-4.8858,3.12255-18.51082,2.81-21.95001
				C59.78003,17.17574,63.25,24.81569,63.25,33.2557z M52.70001,13.28573c-0.52002,6.48999-1.47003,13.23999-2.79999,20.06
				c-1.17741,5.97474-2.46666,11.25225-6.17004,16c-2.33997,3.07001-5.66998,6.01001-9.79999,6.01001h-0.27997
				c-5.95097-0.18818-14.6757-8.20637-16.29999-18.58002c-0.18005-1.09998-0.28003-2.23999-0.38-3.34003
				c-0.93897-10.48537-3.81837-7.35428-3.69-17.54999c0.01001-1.14996,0.14996-2,0.75-2.42999
				c0.21997-0.14996,0.51001-0.22998,0.83997-0.22998c1.83004,0,3.12717,2.02751,2.97003,3.32001v0.03998v0.03998
				c0,0.1523,0.01569,0.14032,0.03998,0.28003c1.14895,5.20916,0.70681,6.95266,1.97003,6.70001
				c0.40997-0.07001,0.67999-0.46002,0.59998-0.87c-0.01828-0.10105-1.11826-6.18106-1.09998-6.08002
				c0.27832-1.88481,2.32088-2.88313,3.87994-2.45001l2.28003,8.85004c0.09003,0.33997,0.40002,0.56,0.72998,0.56
				c0.06,0,0.12-0.01001,0.19-0.02002c0.40002-0.10004,0.64001-0.51001,0.54004-0.91998L24.63,13.64571
				c1.22035-4.28574,3.65758-7.87837,7.83002-6.27002l1.20996,9.37c0.05005,0.37006,0.37006,0.65002,0.75,0.65002
				c0.03003,0,0.06,0,0.09003-0.01001c0.40997-0.04999,0.70001-0.42999,0.65002-0.83997c-0.01343-0.10346-1.26301-9.73023-1.25-9.63
				c0.72721-2.10238,1.713-4.42004,4.01996-4.42004c3.35461,0,4.675,4.39249,5.04999,7.74005l-1.00995,9.38001
				c-0.04004,0.40997,0.25,0.77997,0.66998,0.82996h0.08002c0.37,0,0.69995-0.28998,0.73999-0.66998
				c0.01112-0.10374,1.01077-9.43051,1-9.33002c1.22824-2.07433,1.79539-5.06876,4.45001-4.65997
				C51.87336,6.1983,52.91789,10.42249,52.70001,13.28573z M45.38,5.66573c-0.78943,0.87555-1.20017,2.13016-1.29999,2.22998
				c-0.2447-1.04389-0.56664-2.18478-1-3.15997C43.85999,5.0057,44.63,5.31569,45.38,5.66573z M34.10004,3.03573
				c-0.64001,0.87-1.07001,1.89001-1.40002,2.83002c-3.4278-1.15434-7.32406,0.224-9.34998,6.81995
				c-1.48176-0.28764-3.39663,0.23244-4.54004,1.63c-0.83449-1.66897-2.43427-2.58997-3.94-2.58997
				c-0.64001,0-1.22998,0.17999-1.70001,0.51001c-1.35999,0.94995-1.37994,2.69995-1.38995,3.63
				c-0.13152,10.83949,2.72177,7.03109,3.69995,17.70996c0.10004,1.12,0.20001,2.29004,0.38,3.42999
				c0.69,4.35004,2.43005,8.38,5.05005,11.70001c-1.45443,3.87831-6.49494,4.35674-10.37,4.78003
				C5.69,48.12569,2.75,41.02571,2.75,33.2557C2.75,15.6926,17.7376,2.15054,34.10004,3.03573z M53.79004,55.21572
				c-0.12006,0.10999-0.25,0.22998-0.38,0.34003c-0.04004,0.04999-0.08002,0.08997-0.12,0.10999
				C48.13969,60.40365,40.89465,63.5057,33,63.5057c-4.24397,0-8.64604-0.98996-11.44-2.26001
				c-3.78737-1.55347-7.16675-3.84674-9.70996-6.38995c3.93891-0.44944,8.29805-1.29538,10.12994-4.87
				c4.01001,4.50995,7.81006,6.75,11.63,6.87h0.32001c3.76001,0,7.38-2.08002,10.57001-6.07001
				c2.01813,2.93519,6.2092,3.67741,9.65002,4.07001C54.11308,54.89267,54.28359,54.72217,53.79004,55.21572z"/><path fill="#172540" d="M46.66003 31.5757c-4.26482-1.70436-8.12801-1.54142-10.93005 2.10003-1.0434 1.30457 4.71085 6.49876 11.19-.91003.16003-.17999.22003-.42999.17004-.65997C47.04004 31.86574 46.88 31.67574 46.66003 31.5757zM37.34003 34.12569c1.95205-2.00632 3.80522-2.69202 7.65997-1.53998C42.62527 34.81956 39.79265 36.3281 37.34003 34.12569zM30.34003 33.67574c-.10004-.13-2.51001-3.14001-5.60004-3.14001-1.92187 0-6.91233.7427-5.58997 2.22998.14996.16003 3.51001 3.91998 6.58997 3.91998C28.15196 36.68569 31.23788 34.79799 30.34003 33.67574zM28.73999 34.12569c-2.4947 2.19535-5.27923.69952-7.65997-1.53998C24.94711 31.41653 26.77846 32.13726 28.73999 34.12569z"/><path fill="#172540" d="M47.40002 27.98574c-.10999-.06-2.76001-1.45001-6.06-1.45001-3.52002 0-6.22003 4.12-6.34003 4.28998-.53629.85338.7453 1.62886 1.26001.82001.03003-.03998 2.38-3.60999 5.08002-3.60999 2.90997 0 5.32996 1.26001 5.35999 1.27002.35999.18994.82001.04999 1.01001-.31006C47.90002 28.62569 47.77002 28.17574 47.40002 27.98574zM25.88 28.03573c2.70001 0 5.04999 3.57001 5.08002 3.60999.51492.8092 1.79594.03281 1.26001-.82001-.12-.16998-2.82001-4.28998-6.34003-4.28998-3.29999 0-5.95001 1.39001-6.06 1.45001-.37.19-.5.63995-.31 1.00995C20.15015 30.24245 21.54371 28.03573 25.88 28.03573zM40.45001 41.9457c-4.62 1.34003-9.28998 1.34003-13.90997 0C26.25 41.86574 25.94 41.96572 25.75 42.1957c-.19.23999-.21997.57001-.07001.83002 2.54999 4.65002 5.11005 6.91998 7.82001 6.91998 2.71002 0 5.26001-2.26996 7.82001-6.91998.14001-.26001.12-.59003-.07001-.83002C41.06 41.96572 40.73999 41.86574 40.45001 41.9457zM27.89001 43.83571c3.72998.82001 7.47998.82001 11.21997 0C35.26001 49.95571 31.73999 49.95571 27.89001 43.83571z"/></svg>