<svg xmlns="http://www.w3.org/2000/svg"  viewBox="0 0 100 100" width="200px" height="200px"><path fill="#444445" d="M78.953,42.736c-0.299-6.932-1.183-13.269-2.69-18.098L78,9l-10.584,4.885 C62.759,11.402,56.847,11,50,11s-12.759,0.402-17.416,2.885L22,9l1.737,15.638c-1.507,4.829-2.392,11.166-2.69,18.098 c-0.117,2.715-0.017,5.438,0.299,8.137l1.531,13.057c0.693,5.913,3.137,11.485,7.019,16.005L35.966,87 c4.464,4.455,8.717,4.118,14.034,4.018c5.317,0.1,9.57,0.437,14.034-4.018l6.069-7.066c3.882-4.52,6.326-10.092,7.019-16.005 l1.531-13.057C78.97,48.174,79.07,45.45,78.953,42.736z"/><path fill="#1f212b" d="M46.984,92.067c-4.137,0-7.867-0.509-11.726-4.358l-6.122-7.122 c-4.026-4.689-6.535-10.409-7.253-16.541l-1.531-13.057c-0.321-2.74-0.424-5.531-0.306-8.296c0.31-7.176,1.232-13.445,2.673-18.152 L21.005,9.11c-0.04-0.359,0.117-0.711,0.41-0.922c0.292-0.211,0.676-0.249,1.005-0.097l10.14,4.68 c4.6-2.293,10.317-2.772,17.44-2.772s12.841,0.479,17.44,2.772l10.14-4.68c0.328-0.151,0.714-0.114,1.005,0.097 c0.293,0.211,0.45,0.563,0.41,0.922l-1.715,15.43c1.44,4.707,2.363,10.977,2.673,18.152l0,0c0.118,2.765,0.016,5.556-0.306,8.296 l-1.531,13.057c-0.718,6.131-3.227,11.851-7.253,16.541l-6.069,7.066c-4.591,4.583-8.952,4.492-14.005,4.383l-0.808-0.017 l-0.771,0.017C48.454,92.051,47.713,92.067,46.984,92.067z M23.19,10.652l1.542,13.875c0.015,0.137,0.002,0.276-0.039,0.409 c-1.425,4.565-2.34,10.735-2.646,17.843c-0.113,2.659-0.015,5.342,0.294,7.977l1.531,13.057c0.672,5.734,3.018,11.083,6.784,15.469 l6.069,7.066c3.882,3.869,7.664,3.789,12.442,3.686l0.813-0.017l0.851,0.017c4.783,0.105,8.562,0.183,12.495-3.742l6.017-7.01 c3.767-4.386,6.112-9.735,6.784-15.469l1.531-13.058c0.309-2.634,0.407-5.318,0.294-7.977c-0.307-7.108-1.222-13.278-2.646-17.843 c-0.041-0.132-0.054-0.271-0.039-0.409l1.542-13.875l-8.974,4.142c-0.286,0.131-0.615,0.123-0.891-0.025 c-4.309-2.296-9.891-2.767-16.945-2.767s-12.637,0.471-16.945,2.767c-0.275,0.147-0.605,0.156-0.891,0.025L23.19,10.652z"/><polygon fill="#c12cff" points="56.5,51.5 50.5,46.5 44.5,51.5 50.5,50.5"/><path fill="#1f212b" d="M56.5,52c-0.027,0-0.055-0.002-0.082-0.007L50.5,51.007l-5.918,0.986 c-0.221,0.034-0.442-0.08-0.536-0.285c-0.095-0.205-0.039-0.448,0.134-0.593l6-5c0.186-0.154,0.455-0.154,0.641,0l6,5 c0.173,0.145,0.229,0.388,0.134,0.593C56.872,51.888,56.693,52,56.5,52z M50.5,50c0.027,0,0.055,0.002,0.082,0.007l4.182,0.697 L50.5,47.151l-4.264,3.553l4.182-0.697C50.445,50.003,50.473,50,50.5,50z"/><polygon fill="#fff" points="31.83,46.432 38.436,47.773 41.596,45.666 30.872,40.783"/><path fill="#1f212b" d="M38.437,48.273c-0.033,0-0.066-0.003-0.1-0.01l-6.606-1.34c-0.202-0.042-0.358-0.203-0.394-0.407 l-0.958-5.649c-0.03-0.182,0.042-0.367,0.188-0.48c0.146-0.112,0.344-0.136,0.512-0.059l10.724,4.883 c0.165,0.075,0.276,0.234,0.291,0.415c0.015,0.181-0.069,0.355-0.221,0.456l-3.159,2.106 C38.631,48.244,38.534,48.273,38.437,48.273z M32.266,46.01l6.066,1.231l2.238-1.493l-9.048-4.12L32.266,46.01z"/><path fill="#1f212b" d="M28.811,68.344c-0.025,0-0.051-0.002-0.076-0.006c-0.272-0.041-0.461-0.296-0.419-0.569l0.531-3.508 c0.027-0.182,0.153-0.334,0.326-0.396l4.97-1.769l3.91-7.82c0.125-0.247,0.424-0.345,0.671-0.224 c0.247,0.124,0.347,0.424,0.224,0.671l-4,8c-0.058,0.115-0.158,0.204-0.279,0.248l-4.878,1.736l-0.486,3.212 C29.267,68.167,29.054,68.344,28.811,68.344z"/><path fill="#1f212b" d="M27.501,77c-0.025,0-0.051-0.002-0.076-0.006c-0.272-0.041-0.461-0.296-0.419-0.569l0.771-5.095 c0.04-0.273,0.297-0.465,0.569-0.419c0.272,0.041,0.461,0.296,0.419,0.569l-0.771,5.095C27.957,76.822,27.744,77,27.501,77z"/><path fill="#c12cff" d="M48,11.5V22c0,1.105,0.895,2,2,2h0c1.105,0,2-0.895,2-2V11.5H48z"/><path fill="#1f212b" d="M50,24.548c-1.405,0-2.548-1.143-2.548-2.548V11.5c0-0.303,0.245-0.548,0.548-0.548h4 c0.303,0,0.548,0.245,0.548,0.548V22C52.548,23.405,51.405,24.548,50,24.548z M48.548,12.048V22c0,0.801,0.651,1.452,1.452,1.452 s1.452-0.651,1.452-1.452v-9.952H48.548z"/><path fill="#c12cff" d="M38,88c0,0-0.5-14.5-0.5-16.5C24.5,62.5,22,51,22,51l-0.447-3.132c0,0,8.947,13.632,19.947,19.632 c-0.133,3.078-1,18-1,22L38,88z"/><path fill="#1f212b" d="M40.5,90c-0.089,0-0.178-0.024-0.257-0.071l-2.5-1.5c-0.146-0.087-0.237-0.242-0.243-0.412 c-0.02-0.571-0.466-13.537-0.498-16.255c-12.827-8.987-15.465-20.54-15.49-20.656l-0.454-3.167c-0.033-0.232,0.1-0.456,0.318-0.539 c0.216-0.083,0.465-0.003,0.595,0.193c0.089,0.135,9.008,13.598,19.769,19.467c0.168,0.091,0.269,0.27,0.261,0.46 c-0.037,0.84-0.128,2.563-0.241,4.704C41.457,77.951,41,86.604,41,89.5c0,0.18-0.097,0.346-0.254,0.435 C40.67,89.979,40.585,90,40.5,90z M38.49,87.711l1.52,0.912c0.068-3.516,0.474-11.208,0.751-16.45 c0.101-1.901,0.184-3.471,0.226-4.385c-8.528-4.764-15.85-14.077-18.644-17.922l0.152,1.064c0.019,0.078,2.619,11.388,15.289,20.16 C37.92,71.182,38,71.336,38,71.5C38,73.318,38.422,85.71,38.49,87.711z"/><polygon fill="#fff" points="68.723,46.432 62.117,47.773 58.957,45.666 69.681,40.783"/><path fill="#1f212b" d="M62.117,48.273c-0.098,0-0.194-0.029-0.277-0.084l-3.16-2.106c-0.151-0.101-0.235-0.275-0.221-0.456 c0.015-0.181,0.126-0.34,0.291-0.415l10.724-4.883c0.169-0.077,0.365-0.054,0.512,0.059c0.146,0.113,0.219,0.297,0.188,0.48 l-0.957,5.649c-0.035,0.204-0.191,0.365-0.394,0.407l-6.606,1.34C62.184,48.269,62.15,48.273,62.117,48.273z M59.982,45.749 l2.239,1.493l6.066-1.231l0.742-4.381L59.982,45.749z M68.724,46.432h0.01H68.724z"/><path fill="#c12cff" d="M70.053,37.5l-12,5l-2-1v-4c0,0,7-4,12-6c5-4,5.457-10.568,5.457-10.568 c-1.484-1.954-3.742-4.128-6.457-6.432c0,8-4,13-4,13l-10,8v9l4,2l12.548-5.764l4.452,3.764l-5,6l-9,1l-2,4l-5-1H50.5h-0.447H47.5 l-5,1l-2-4l-9-1l-5-6l4.372-3.764L43.5,46.5l4-2v-9l-10-8c0,0-4.585-5.014-4.585-13.014c-2.244,1.767-4.237,3.868-5.936,6.383 c0,0,0.521,6.632,5.521,10.632c5,2,12,6,12,6v4l-2,1l-12-5l-6,5v4l6,7l8,1l3,5l7-2h1.553H50.5h1.553l7.447,2l2.553-5l8-1l6-7v-4 L70.053,37.5z"/><path fill="#1f212b" d="M59.5,60c-0.043,0-0.087-0.005-0.13-0.017L51.986,58H48.57l-6.933,1.981 c-0.219,0.06-0.45-0.03-0.566-0.224l-2.875-4.792l-7.759-0.97c-0.123-0.015-0.236-0.076-0.317-0.171l-6-7 C24.043,46.735,24,46.619,24,46.5v-4c0-0.148,0.065-0.289,0.18-0.384l6-5c0.144-0.12,0.34-0.149,0.513-0.077l11.789,4.912 L44,41.191v-3.399c-1.296-0.73-7.306-4.075-11.686-5.827c-0.046-0.019-0.089-0.043-0.127-0.074 c-5.11-4.088-5.686-10.704-5.707-10.983c-0.01-0.113,0.021-0.225,0.084-0.319c1.666-2.465,3.698-4.651,6.041-6.496 c0.15-0.118,0.355-0.141,0.528-0.057c0.172,0.083,0.281,0.258,0.281,0.45c0,7.698,4.41,12.629,4.454,12.678l9.943,7.946 C47.931,35.205,48,35.348,48,35.5v9c0,0.189-0.107,0.362-0.276,0.447l-4,2c-0.135,0.067-0.292,0.07-0.432,0.008l-12.336-5.632 l-3.757,3.235l4.556,5.467l8.801,0.978c0.168,0.019,0.315,0.122,0.392,0.273l1.829,3.658l4.626-0.925l5.65-0.01l4.724,0.936 l1.829-3.659c0.076-0.152,0.224-0.254,0.392-0.273l8.801-0.978l4.553-5.464l-3.83-3.239l-12.259,5.632 c-0.138,0.063-0.297,0.061-0.433-0.007l-4-2c-0.169-0.085-0.276-0.258-0.276-0.447v-9c0-0.152,0.069-0.295,0.188-0.391l9.953-7.962 c0.37-0.489,3.859-5.304,3.859-12.647c0-0.195,0.113-0.372,0.29-0.454c0.177-0.082,0.386-0.054,0.533,0.072 c3.005,2.55,5.143,4.68,6.533,6.511c0.073,0.096,0.108,0.216,0.101,0.337c-0.02,0.277-0.532,6.833-5.645,10.924 c-0.038,0.03-0.081,0.055-0.127,0.074c-4.38,1.752-10.39,5.097-11.686,5.827v3.399l1.519,0.76l11.789-4.912 c0.173-0.072,0.369-0.042,0.513,0.077l6,5c0.114,0.095,0.18,0.236,0.18,0.384v4c0,0.119-0.043,0.235-0.12,0.325l-6,7 c-0.081,0.095-0.194,0.156-0.317,0.171l-7.737,0.967l-2.433,4.764C59.858,59.898,59.685,60,59.5,60z M30.754,53.028l7.809,0.976 c0.152,0.019,0.287,0.107,0.366,0.239l2.803,4.671l6.631-1.895C48.407,57.006,48.453,57,48.5,57h3.553 c0.044,0,0.087,0.006,0.13,0.017l7.056,1.895l2.369-4.64c0.075-0.147,0.219-0.248,0.383-0.269l7.809-0.976l5.754-6.713v-3.581 l-5.587-4.656l-11.721,4.883c-0.134,0.056-0.286,0.05-0.416-0.014l-2-1c-0.169-0.085-0.276-0.258-0.276-0.447v-4 c0-0.179,0.096-0.345,0.252-0.434c0.07-0.04,7.022-4.003,11.992-6.002c4.268-3.456,5.077-8.919,5.197-9.984 c-1.22-1.573-3.015-3.383-5.465-5.512c-0.322,7.455-3.926,12.043-4.086,12.244c-0.023,0.029-0.05,0.055-0.078,0.078l-9.813,7.85 v8.451l3.509,1.755l12.33-5.665c0.178-0.079,0.383-0.052,0.532,0.073l4.452,3.765c0.209,0.177,0.236,0.491,0.061,0.702l-5,6 c-0.082,0.099-0.2,0.163-0.328,0.177l-8.73,0.97L58.5,55.724c-0.101,0.202-0.324,0.314-0.545,0.267l-5-1L47.5,55l-4.902,0.99 c-0.222,0.044-0.444-0.065-0.545-0.267l-1.878-3.757l-8.73-0.97c-0.128-0.014-0.246-0.078-0.328-0.177l-5-6 c-0.175-0.21-0.149-0.521,0.058-0.699l4.372-3.765c0.148-0.128,0.357-0.157,0.534-0.076l12.41,5.666L47,44.191V35.74l-9.813-7.85 c-0.238-0.252-4.389-4.877-4.748-12.371c-1.887,1.6-3.547,3.438-4.944,5.478c0.125,1.038,0.979,6.599,5.261,10.066 c4.97,1.999,11.922,5.962,11.992,6.002C44.904,37.155,45,37.321,45,37.5v4c0,0.189-0.107,0.362-0.276,0.447l-2,1 c-0.129,0.065-0.281,0.071-0.416,0.014l-11.721-4.883L25,42.734v3.581L30.754,53.028z"/><path fill="#1f212b" d="M73.052,77c-0.243,0-0.456-0.178-0.493-0.425l-1.795-11.868l-4.879-1.736 c-0.118-0.042-0.217-0.128-0.275-0.24l-2.436-4.674c-0.128-0.245-0.032-0.547,0.212-0.674s0.548-0.034,0.675,0.212l2.345,4.5 l4.976,1.771c0.173,0.062,0.299,0.214,0.326,0.396l1.84,12.164c0.042,0.273-0.146,0.528-0.419,0.569 C73.103,76.998,73.077,77,73.052,77z"/><path fill="#c12cff" d="M62.553,88c0,0,0.947-14.5,0.947-16.5c13-9,15.053-20.5,15.053-20.5L79,47.868 c0,0-8.947,13.632-19.947,19.632c0.133,3.078,1,18,1,22L62.553,88z"/><path fill="#1f212b" d="M60.053,90c-0.085,0-0.17-0.021-0.246-0.065c-0.157-0.089-0.254-0.255-0.254-0.435 c0-2.909-0.459-11.598-0.763-17.349c-0.111-2.107-0.201-3.799-0.237-4.63c-0.008-0.19,0.093-0.369,0.261-0.46 c10.761-5.869,19.68-19.332,19.769-19.467c0.129-0.197,0.379-0.276,0.595-0.193c0.219,0.083,0.352,0.307,0.318,0.539l-0.447,3.132 c-0.023,0.133-2.218,11.699-15.052,20.693c-0.061,2.725-0.907,15.698-0.944,16.269c-0.011,0.164-0.102,0.312-0.242,0.396l-2.5,1.5 C60.23,89.976,60.142,90,60.053,90z M59.566,67.788c0.042,0.902,0.123,2.443,0.223,4.311c0.277,5.267,0.686,12.994,0.754,16.524 l1.527-0.917C62.198,85.738,63,73.314,63,71.5c0-0.164,0.08-0.318,0.216-0.411c12.66-8.765,14.824-20.064,14.845-20.177 l0.149-1.047C75.416,53.71,68.094,63.024,59.566,67.788z M62.553,88h0.01H62.553z"/><path fill="#1f212b" d="M48.5,32.048c-0.12,0-0.241-0.04-0.342-0.12c-0.051-0.04-5.059-4.054-8.046-7.041 c-0.06-0.06-0.105-0.133-0.132-0.214c-2.005-6.015-2.028-11.925-2.028-12.173c0-0.302,0.245-0.547,0.548-0.548 c0.303,0,0.548,0.245,0.548,0.548c0,0.059,0.024,5.904,1.932,11.704c2.953,2.934,7.813,6.829,7.862,6.868 c0.236,0.189,0.274,0.534,0.086,0.77C48.819,31.978,48.66,32.048,48.5,32.048z"/><path fill="#1f212b" d="M25.141,29.79c-0.231,0-0.447-0.148-0.521-0.38c-0.521-1.62-0.876-3.292-1.058-4.972 c-0.032-0.301,0.186-0.571,0.486-0.603c0.293-0.037,0.571,0.185,0.604,0.486c0.173,1.605,0.513,3.205,1.011,4.754 c0.093,0.288-0.066,0.597-0.354,0.689C25.253,29.781,25.196,29.79,25.141,29.79z"/><path fill="#1f212b" d="M27.937,35.587c-0.166,0-0.33-0.075-0.438-0.218c-0.031-0.042-0.772-1.033-1.621-2.798 c-0.132-0.272-0.017-0.6,0.256-0.731c0.271-0.129,0.601-0.017,0.73,0.256c0.798,1.658,1.503,2.604,1.51,2.614 c0.182,0.242,0.133,0.585-0.108,0.767C28.167,35.55,28.052,35.587,27.937,35.587z"/><g><path fill="#1f212b" d="M52.171,32.048c-0.187,0-0.368-0.095-0.471-0.267c-0.155-0.26-0.071-0.596,0.188-0.751 c0.02-0.014,0.182-0.129,0.729-0.58c0.232-0.191,0.578-0.159,0.771,0.076c0.192,0.233,0.158,0.579-0.075,0.771 c-0.453,0.373-0.76,0.612-0.862,0.673C52.363,32.023,52.267,32.048,52.171,32.048z"/></g><g><path fill="#1f212b" d="M54.727,29.942c-0.156,0-0.311-0.066-0.419-0.195c-0.195-0.231-0.165-0.577,0.066-0.771l0.489-0.409 c0.333-0.277,0.65-0.542,1.07-0.906c0.228-0.197,0.572-0.175,0.772,0.054c0.198,0.228,0.175,0.574-0.054,0.772 c-0.427,0.371-0.75,0.64-1.089,0.922l-0.484,0.404C54.977,29.9,54.852,29.942,54.727,29.942z"/></g><g><path fill="#1f212b" d="M57.97,27.124c-0.149,0-0.298-0.061-0.406-0.181c-0.203-0.225-0.186-0.571,0.039-0.773 c0.805-0.727,1.506-1.388,2.089-1.966c1.908-5.808,1.931-11.646,1.931-11.704c0-0.303,0.245-0.548,0.548-0.548 s0.548,0.245,0.548,0.548c0,0.249-0.023,6.158-2.028,12.173c-0.026,0.081-0.072,0.154-0.132,0.214 c-0.613,0.613-1.36,1.317-2.221,2.095C58.232,27.077,58.101,27.124,57.97,27.124z"/></g><g><path fill="#1f212b" d="M72.032,35.587c-0.115,0-0.23-0.036-0.329-0.11c-0.241-0.182-0.29-0.525-0.108-0.767 c0.03-0.041,3.046-4.12,3.722-10.389c0.032-0.301,0.311-0.524,0.604-0.486c0.301,0.032,0.519,0.302,0.486,0.603 c-0.711,6.585-3.806,10.756-3.937,10.931C72.362,35.511,72.198,35.587,72.032,35.587z"/></g><g><path fill="#1f212b" d="M53,67h-5c-0.189,0-0.362-0.107-0.447-0.276l-2.5-5c-0.069-0.14-0.07-0.303-0.002-0.443 s0.198-0.24,0.352-0.271l5-1c0.064-0.013,0.131-0.013,0.195,0l5,1c0.153,0.03,0.283,0.13,0.352,0.271s0.067,0.304-0.002,0.443 l-2.5,5C53.362,66.893,53.189,67,53,67z M48.309,66h4.383l2.068-4.138L50.5,61.01l-4.26,0.852L48.309,66z"/></g><g><path fill="#1f212b" d="M57,91.5H44c-0.169,0-0.327-0.085-0.419-0.228c-0.093-0.142-0.106-0.321-0.038-0.476l3.957-8.903 v-3.451c0-0.276,0.224-0.5,0.5-0.5s0.5,0.224,0.5,0.5V82c0,0.07-0.015,0.139-0.043,0.203L44.77,90.5H56.23l-0.991-2.231 c-0.112-0.252,0.002-0.548,0.254-0.66c0.252-0.112,0.548,0.001,0.66,0.254l1.304,2.934c0.068,0.155,0.055,0.333-0.038,0.476 C57.327,91.415,57.169,91.5,57,91.5z"/></g><g><path fill="#1f212b" d="M54.532,85.943c-0.191,0-0.374-0.11-0.457-0.297l-1.532-3.443C52.515,82.139,52.5,82.07,52.5,82v-8 c0-0.133,0.053-0.26,0.146-0.354l0.854-0.854V70.5h-6v2.293l0.854,0.854C48.447,73.74,48.5,73.867,48.5,74v2.049 c0,0.276-0.224,0.5-0.5,0.5s-0.5-0.224-0.5-0.5v-1.842l-0.854-0.854C46.553,73.26,46.5,73.133,46.5,73v-3 c0-0.276,0.224-0.5,0.5-0.5h7c0.276,0,0.5,0.224,0.5,0.5v3c0,0.133-0.053,0.26-0.146,0.354L53.5,74.207v7.687l1.489,3.346 c0.112,0.252-0.001,0.548-0.254,0.66C54.67,85.929,54.601,85.943,54.532,85.943z"/></g><g><path fill="#1f212b" d="M54.5,86h-8c-0.276,0-0.5-0.224-0.5-0.5s0.224-0.5,0.5-0.5h8c0.276,0,0.5,0.224,0.5,0.5 S54.776,86,54.5,86z"/></g></svg>