<svg xmlns="http://www.w3.org/2000/svg" viewBox="0 0 64 64"><g data-name="Layer 49"><path d="M33.45,64a83.46,83.46,0,0,1-12.62-1l-.55-.09L14,47.07,13,35.22l-2-5V10.57l.3-.29C18.59,3.21,26.16-.13,33.79.35c11.39.71,18.68,9.63,19,10l.22.27V30.18l-2,5L49.93,47.36,43.74,62.83l-.48.13A39.23,39.23,0,0,1,33.45,64ZM21.72,61.09c2.53.38,13.25,1.82,20.54.06L48,46.76l1.06-12.14L51,29.8V11.36c-1.27-1.44-7.89-8.43-17.35-9C26.71,1.93,19.77,5,13,11.42V29.8l2,5.11,1,11.85Z"/><path fill="#d21f23" d="M32,1C23,1,12,11,12,11V30l2,5,1,12,6,15a50,50,0,0,0,11,1,50,50,0,0,0,11-1l6-15,1-12,2-5V11S41,1,32,1Z"/><path d="M32,64a50.58,50.58,0,0,1-11.24-1l-.5-.12L14,47.07,13,35.22l-2-5V10.55l.33-.3C11.79,9.83,22.72,0,32,0S52.21,9.83,52.67,10.25l.33.3V30.18l-2,5L49.93,47.36,43.74,62.84l-.5.12A50.58,50.58,0,0,1,32,64ZM21.73,61.13A54,54,0,0,0,32,62a54,54,0,0,0,10.27-.86L48,46.76l1.06-12.14L51,29.8V11.44C49.13,9.83,39.67,2,32,2S14.87,9.83,13,11.44V29.8l2,5.11,1,11.85Z"/><polygon fill="gold" points="18 44 18 48 21 52 23 50 18 43 18 44"/><polygon fill="gold" points="46 44 46 48 43 52 41 50 46 43 46 44"/><path fill="gold" d="M25.54,58.05C22.91,46.79,11,30,11,30l5-6V12l8-5,2.64,11.07H37.36L40,7l8,5V24l5,6S41.12,46.76,38.47,58"/><path d="M24.57,58.28C22,47.34,10.3,30.73,10.18,30.57l-.44-.63L15,23.63V11.44l9.65-6,2.78,11.66h9.13L39.35,5.41l9.65,6V23.63l5.26,6.31-.44.63c-.12.17-11.8,16.74-14.37,27.68l-1.95-.46c2.4-10.21,12-24.54,14.25-27.74L47,24.35V12.54l-6.35-4-2.5,10.49H25.85L23.35,8.58l-6.35,4V24.35L12.26,30c2.22,3.21,11.87,17.57,14.26,27.78Z"/><path d="M37,63.09c-1-9.71,12.09-29.22,14.74-33L47,24.35V12.54l-6.35-4-2.5,10.49H25.85L23.35,8.58l-6.35,4V24.35L12.26,30C14.91,33.88,28,53.38,27,63.09l-2-.21c1-9.83-14.66-32.09-14.82-32.32l-.44-.63L15,23.63V11.44l9.65-6,2.78,11.66h9.13L39.35,5.41l9.65,6V23.63l5.26,6.31-.44.63C53.66,30.79,38,53.06,39,62.89Z"/><rect width="4" height="3" x="30" y="56" fill="#d21f23"/><polygon points="40.3 58.99 34.38 58.99 33.38 56.99 30.62 56.99 29.62 58.99 23.7 58.99 17.45 54.82 18.55 53.16 24.3 56.99 28.38 56.99 29.38 54.99 34.62 54.99 35.62 56.99 39.7 56.99 45.45 53.16 46.55 54.82 40.3 58.99"/><path d="M43.38,53.3,40.76,52H23V50H41.24l1.38.69,2.31-3.86c-.69-3.92,3.69-11.46,4.21-12.34l1.72,1C49,38.66,46.27,44.5,47,46.69l.13.43Z"/><path d="M20.64,53.45l-3.75-6.38.2-.46c.79-1.87-1.82-7.61-3.93-11.09l1.71-1c.9,1.47,5.12,8.71,4.23,12.4l2.28,3.88L22.74,50H41v2H23.26Z"/><path fill="#0ff" d="M19,27s13.14,2.29,26,0l2,4-7,2-4-2H28l-4,2-7-3Z"/><path d="M24,34.09,15.5,30.44l3-4.54.64.11c.13,0,13.13,2.23,25.65,0l.74-.13,2.87,5.75L39.9,34.06,35.76,32H28.24ZM27.76,30h8.47l3.86,1.93,5.47-1.56L44.44,28.1a85.91,85.91,0,0,1-25,0l-1,1.46L24,31.89Z"/><rect width="8" height="8" x="28" y="9.99" fill="#d21f23"/><path d="M37,19H27V9H37Zm-8-2h6V11H29Z"/><rect width="3.61" height="2" x="41.2" y="6.49" transform="rotate(-56.31 42.999 7.484)"/><rect width="3.61" height="2" x="45.2" y="8.49" transform="rotate(-56.31 46.996 9.492)"/><rect width="2" height="3.61" x="20" y="5.69" transform="rotate(-33.69 21.004 7.495)"/><rect width="2" height="3.61" x="16" y="7.69" transform="rotate(-33.69 16.993 9.49)"/></g></svg>