<svg width="94" height="94" viewBox="0 0 94 94" fill="none" xmlns="http://www.w3.org/2000/svg">
<g filter="url(#filter0_d_0_1)">
<circle cx="47" cy="43" r="43" fill="#D21F23"/>
<circle cx="47" cy="43" r="42" stroke="black" stroke-width="2"/>
</g>
<g filter="url(#filter1_d_0_1)">
<path d="M48.45 75C44.2241 74.9867 40.0053 74.6524 35.83 74L35.28 73.91L29 58.07L28 46.22L26 41.22V21.57L26.3 21.28C33.59 14.21 41.16 10.87 48.79 11.35C60.18 12.06 67.47 20.98 67.79 21.35L68.01 21.62V41.18L66.01 46.18L64.93 58.36L58.74 73.83L58.26 73.96C55.0468 74.7181 51.7507 75.0675 48.45 75V75ZM36.72 72.09C39.25 72.47 49.97 73.91 57.26 72.15L63 57.76L64.06 45.62L66 40.8V22.36C64.73 20.92 58.11 13.93 48.65 13.36C41.71 12.93 34.77 16 28 22.42V40.8L30 45.91L31 57.76L36.72 72.09Z" fill="black"/>
<path d="M47 12C38 12 27 22 27 22V41L29 46L30 58L36 73C39.6185 73.7385 43.3077 74.0739 47 74C50.6923 74.0739 54.3815 73.7385 58 73L64 58L65 46L67 41V22C67 22 56 12 47 12Z" fill="#D21F23"/>
<path d="M47 75C43.2278 75.087 39.4576 74.7515 35.76 74L35.26 73.88L29 58.07L28 46.22L26 41.22V21.55L26.33 21.25C26.79 20.83 37.72 11 47 11C56.28 11 67.21 20.83 67.67 21.25L68 21.55V41.18L66 46.18L64.93 58.36L58.74 73.84L58.24 73.96C54.5439 74.725 50.7737 75.0738 47 75V75ZM36.73 72.13C40.1178 72.7468 43.5568 73.0381 47 73C50.4429 73.0414 53.8819 72.7534 57.27 72.14L63 57.76L64.06 45.62L66 40.8V22.44C64.13 20.83 54.67 13 47 13C39.33 13 29.87 20.83 28 22.44V40.8L30 45.91L31 57.76L36.73 72.13Z" fill="black"/>
<path d="M33 55V59L36 63L38 61L33 54V55Z" fill="#FFD700"/>
<path d="M61 55V59L58 63L56 61L61 54V55Z" fill="#FFD700"/>
<path d="M40.54 69.05C37.91 57.79 26 41 26 41L31 35V23L39 18L41.64 29.07H52.36L55 18L63 23V35L68 41C68 41 56.12 57.76 53.47 69" fill="#FFD700"/>
<path d="M39.57 69.28C37 58.34 25.3 41.73 25.18 41.57L24.74 40.94L30 34.63V22.44L39.65 16.44L42.43 28.1H51.56L54.35 16.41L64 22.41V34.63L69.26 40.94L68.82 41.57C68.7 41.74 57.02 58.31 54.45 69.25L52.5 68.79C54.9 58.58 64.5 44.25 66.75 41.05L62 35.35V23.54L55.65 19.54L53.15 30.03H40.85L38.35 19.58L32 23.58V35.35L27.26 41C29.48 44.21 39.13 58.57 41.52 68.78L39.57 69.28Z" fill="black"/>
<path d="M52 74.09C51 64.38 64.09 44.87 66.74 41.09L62 35.35V23.54L55.65 19.54L53.15 30.03H40.85L38.35 19.58L32 23.58V35.35L27.26 41C29.91 44.88 43 64.38 42 74.09L40 73.88C41 64.05 25.34 41.79 25.18 41.56L24.74 40.93L30 34.63V22.44L39.65 16.44L42.43 28.1H51.56L54.35 16.41L64 22.41V34.63L69.26 40.94L68.82 41.57C68.66 41.79 53 64.06 54 73.89L52 74.09Z" fill="black"/>
<path d="M49 67H45V70H49V67Z" fill="#D21F23"/>
<path d="M55.3 69.99H49.38L48.38 67.99H45.62L44.62 69.99H38.7L32.45 65.82L33.55 64.16L39.3 67.99H43.38L44.38 65.99H49.62L50.62 67.99H54.7L60.45 64.16L61.55 65.82L55.3 69.99Z" fill="black"/>
<path d="M58.38 64.3L55.76 63H38V61H56.24L57.62 61.69L59.93 57.83C59.24 53.91 63.62 46.37 64.14 45.49L65.86 46.49C64 49.66 61.27 55.5 62 57.69L62.13 58.12L58.38 64.3Z" fill="black"/>
<path d="M35.64 64.45L31.89 58.07L32.09 57.61C32.88 55.74 30.27 50 28.16 46.52L29.87 45.52C30.77 46.99 34.99 54.23 34.1 57.92L36.38 61.8L37.74 61H56V63H38.26L35.64 64.45Z" fill="black"/>
<path d="M34 38C34 38 47.14 40.29 60 38L62 42L55 44L51 42H43L39 44L32 41L34 38Z" fill="#00FFFF"/>
<path d="M39 45.09L30.5 41.44L33.5 36.9L34.14 37.01C34.27 37.01 47.27 39.24 59.79 37.01L60.53 36.88L63.4 42.63L54.9 45.06L50.76 43H43.24L39 45.09ZM42.76 41H51.23L55.09 42.93L60.56 41.37L59.44 39.1C51.1512 40.319 42.7288 40.319 34.44 39.1L33.44 40.56L39 42.89L42.76 41Z" fill="black"/>
<path d="M51 20.99H43V28.99H51V20.99Z" fill="#D21F23"/>
<path d="M52 30H42V20H52V30ZM44 28H50V22H44V28Z" fill="black"/>
<path d="M58.1765 16.4258L56.174 19.4295L57.8381 20.5389L59.8406 17.5352L58.1765 16.4258Z" fill="black"/>
<path d="M62.1685 18.4268L60.166 21.4306L61.8301 22.54L63.8326 19.5362L62.1685 18.4268Z" fill="black"/>
<path d="M35.8315 16.4407L34.1674 17.5501L36.1699 20.5538L37.834 19.4444L35.8315 16.4407Z" fill="black"/>
<path d="M31.8324 18.4337L30.1683 19.5431L32.1708 22.5468L33.8349 21.4374L31.8324 18.4337Z" fill="black"/>
</g>
<defs>
<filter id="filter0_d_0_1" x="0" y="0" width="94" height="94" filterUnits="userSpaceOnUse" color-interpolation-filters="sRGB">
<feFlood flood-opacity="0" result="BackgroundImageFix"/>
<feColorMatrix in="SourceAlpha" type="matrix" values="0 0 0 0 0 0 0 0 0 0 0 0 0 0 0 0 0 0 127 0" result="hardAlpha"/>
<feOffset dy="4"/>
<feGaussianBlur stdDeviation="2"/>
<feComposite in2="hardAlpha" operator="out"/>
<feColorMatrix type="matrix" values="0 0 0 0 0 0 0 0 0 0 0 0 0 0 0 0 0 0 0.25 0"/>
<feBlend mode="normal" in2="BackgroundImageFix" result="effect1_dropShadow_0_1"/>
<feBlend mode="normal" in="SourceGraphic" in2="effect1_dropShadow_0_1" result="shape"/>
</filter>
<filter id="filter1_d_0_1" x="11" y="11" width="72" height="72.0134" filterUnits="userSpaceOnUse" color-interpolation-filters="sRGB">
<feFlood flood-opacity="0" result="BackgroundImageFix"/>
<feColorMatrix in="SourceAlpha" type="matrix" values="0 0 0 0 0 0 0 0 0 0 0 0 0 0 0 0 0 0 127 0" result="hardAlpha"/>
<feOffset dy="4"/>
<feGaussianBlur stdDeviation="2"/>
<feComposite in2="hardAlpha" operator="out"/>
<feColorMatrix type="matrix" values="0 0 0 0 0 0 0 0 0 0 0 0 0 0 0 0 0 0 0.25 0"/>
<feBlend mode="normal" in2="BackgroundImageFix" result="effect1_dropShadow_0_1"/>
<feBlend mode="normal" in="SourceGraphic" in2="effect1_dropShadow_0_1" result="shape"/>
</filter>
</defs>
</svg>
