<svg width="888" height="573" viewBox="0 0 888 573" fill="none" xmlns="http://www.w3.org/2000/svg">
<g filter="url(#filter0_d_2_2)">
<path d="M647 564.351C622.683 560.544 599.302 557.306 576.857 554.636L585.5 537.351C582.5 536.351 569.5 546.351 569.5 546.351L580.5 496.351C565.5 498.351 558.5 549.351 558.5 549.351L541.5 532.351L549.868 551.598C481.187 544.381 421.922 542.129 372.103 542.645L379.5 527.851C376.5 526.851 363.5 536.851 363.5 536.851L374.5 486.851C359.5 488.851 352.5 539.851 352.5 539.851L335.5 522.851L344.363 543.236C310.238 544.228 276.185 546.97 242.341 551.452C249.722 528.456 275.5 506.351 275.5 506.351C255.679 512.517 245.368 522.563 240.031 531.875C238.951 484.631 246.219 437.568 261.5 392.851C261.5 392.851 221.5 482.851 227.5 542.851L228.261 553.509C193.462 558.937 176 564.351 176 564.351H647Z" fill="#3F3D56"/>
<path d="M738.672 440.486C736.299 440.486 733.979 439.782 732.005 438.464C730.032 437.145 728.494 435.271 727.586 433.078C726.678 430.886 726.44 428.473 726.903 426.145C727.366 423.817 728.509 421.679 730.187 420.001C731.865 418.323 734.004 417.18 736.331 416.717C738.659 416.254 741.072 416.491 743.265 417.4C745.457 418.308 747.331 419.846 748.65 421.819C749.969 423.793 750.672 426.113 750.672 428.486C750.669 431.668 749.403 434.718 747.154 436.968C744.904 439.217 741.854 440.483 738.672 440.486V440.486ZM738.672 418.486C736.695 418.486 734.761 419.073 733.117 420.172C731.472 421.27 730.19 422.832 729.434 424.659C728.677 426.487 728.479 428.497 728.864 430.437C729.25 432.377 730.203 434.159 731.601 435.557C733 436.956 734.782 437.908 736.721 438.294C738.661 438.68 740.672 438.482 742.499 437.725C744.326 436.968 745.888 435.686 746.987 434.042C748.086 432.397 748.672 430.464 748.672 428.486C748.669 425.835 747.615 423.293 745.74 421.418C743.865 419.544 741.324 418.489 738.672 418.486V418.486Z" fill="#3F3D56"/>
<path d="M834.5 562.776H814.759V543.035H834.5V562.776ZM816.277 561.258H832.981V544.554H816.277V561.258Z" fill="#3F3D56"/>
<path d="M166.144 563.856L152.679 549.42L167.115 535.955L180.58 550.391L166.144 563.856ZM154.825 549.495L166.218 561.71L178.434 550.316L167.04 538.101L154.825 549.495Z" fill="#3F3D56"/>
<path d="M883.5 561.662H25.6724V563.662H883.5V561.662Z" fill="#3F3D56"/>
<path d="M421.26 1.30679H386.521C385.117 1.30679 383.979 2.44484 383.979 3.84868V6.85132C383.979 8.25517 385.117 9.39321 386.521 9.39321H421.26C422.664 9.39321 423.802 8.25517 423.802 6.85132V3.84868C423.802 2.44484 422.664 1.30679 421.26 1.30679Z" fill="#E6E8EC"/>
<path d="M434.41 9.93665C436.943 9.93665 438.997 7.88314 438.997 5.35C438.997 2.81687 436.943 0.763351 434.41 0.763351C431.877 0.763351 429.823 2.81687 429.823 5.35C429.823 7.88314 431.877 9.93665 434.41 9.93665Z" fill="#E6E8EC"/>
<path opacity="0.3" d="M536.46 457.681V529.841C536.463 533.118 535.753 536.357 534.378 539.333C533.004 542.308 530.998 544.948 528.5 547.071C524.402 550.563 519.194 552.481 513.81 552.481H309.16C305.519 552.486 301.93 551.611 298.7 549.931C297.941 549.542 297.206 549.108 296.5 548.631C293.424 546.555 290.905 543.757 289.163 540.481C287.421 537.205 286.51 533.551 286.51 529.841V457.711C320.826 426.864 365.337 409.796 411.479 409.791C457.622 409.785 502.136 426.842 536.46 457.681Z" fill="white"/>
<path opacity="0.3" d="M524.29 549.911C521.058 551.608 517.46 552.49 513.81 552.481H309.16C305.519 552.486 301.93 551.611 298.7 549.931C307.965 527.649 323.621 508.61 343.694 495.216C363.767 481.822 387.357 474.673 411.488 474.671C435.62 474.668 459.211 481.813 479.286 495.204C499.362 508.594 515.021 527.63 524.29 549.911V549.911Z" fill="white"/>
<path opacity="0.3" d="M479.75 551.12C477.794 552.147 475.617 552.681 473.408 552.675H349.57C347.366 552.679 345.195 552.149 343.24 551.132C348.846 537.649 358.32 526.128 370.467 518.023C382.614 509.918 396.889 505.592 411.491 505.591C426.093 505.589 440.369 509.913 452.517 518.016C464.665 526.119 474.141 537.638 479.75 551.12V551.12Z" fill="white"/>
<path d="M554.269 244.4V273.553C554.269 273.553 556.601 306.204 569.429 322.529C569.429 322.529 590.419 352.265 593.334 345.852L589.743 324.736L577.591 313.201L571.178 277.051L569.429 244.4H554.269Z" fill="#AF6E51"/>
<path d="M683.124 507.941V529.514L665.633 535.928V510.856L683.124 507.941Z" fill="#FFB8B8"/>
<path d="M647.558 505.609L659.219 531.846L642.894 538.843L639.395 513.189L647.558 505.609Z" fill="#FFB8B8"/>
<path d="M676.711 304.455C676.711 304.455 700.033 514.938 691.287 515.521C682.541 516.104 665.633 527.182 665.633 519.602C665.633 512.023 652.222 413.486 652.222 413.486L639.395 362.76V432.727L652.806 512.023C652.806 512.023 639.978 528.931 630.649 519.019L610.826 441.473C610.826 441.473 584.588 323.696 585.754 314.367C585.754 314.367 645.809 263.058 676.711 304.455Z" fill="#2F2E41"/>
<path d="M672.046 530.68C672.046 530.68 676.711 520.768 687.206 527.182L695.952 537.677C695.952 537.677 718.5 556.351 702.5 560.351C686.009 564.473 676.128 560.087 676.128 560.087C676.128 560.087 673.213 558.338 670.88 558.338C668.548 558.338 663.301 554.257 663.301 553.091C663.301 551.925 665.05 531.263 665.05 531.263C665.71 530.942 666.452 530.825 667.18 530.929C667.907 531.033 668.587 531.353 669.131 531.847C670.88 533.596 672.046 530.68 672.046 530.68Z" fill="#2F2E41"/>
<path d="M637.646 527.182C637.646 527.182 648.724 518.436 653.972 528.348C653.972 528.348 657.276 529.514 657.664 528.348C658.053 527.182 660.968 526.599 660.968 533.013C660.968 539.426 664.134 555.423 661.219 556.006C658.304 556.589 655.389 558.338 655.972 560.67C656.555 563.003 652.806 563.331 639.395 562.748C625.985 562.165 625.402 556.918 625.402 556.918C625.402 556.918 625.402 549.338 628.9 545.257C632.399 541.175 637.646 527.182 637.646 527.182Z" fill="#2F2E41"/>
<path d="M616.073 145.28C616.073 145.28 613.158 166.854 631.816 174.433C650.473 182.013 590.419 207.084 584.588 192.508C578.758 177.932 585.754 173.267 585.754 173.267C585.754 173.267 591.585 167.437 586.337 151.694L616.073 145.28Z" fill="#AF6E51"/>
<path d="M597.415 160.44C611.584 160.44 623.07 148.954 623.07 134.785C623.07 120.617 611.584 109.131 597.415 109.131C583.247 109.131 571.761 120.617 571.761 134.785C571.761 148.954 583.247 160.44 597.415 160.44Z" fill="#AF6E51"/>
<path d="M627.151 181.43C627.151 181.43 609.659 190.759 592.751 183.762C575.842 176.765 576.425 207.084 576.425 207.084L585.171 229.824L645.809 223.993L641.727 189.01L627.151 181.43Z" fill="#F2F2F2"/>
<path d="M618.461 161.48C621.566 162.139 624.484 163.488 626.998 165.427C629.511 167.367 631.557 169.847 632.982 172.684L660.968 181.43L667.965 191.342L659.802 263.058C659.802 263.058 674.962 277.634 674.962 285.797C674.962 293.96 693.619 321.946 684.291 318.448C674.962 314.95 658.053 302.706 658.053 302.706C658.053 302.706 615.49 304.455 602.08 316.116C588.669 327.777 583.422 324.279 583.422 324.279C583.422 324.279 569.429 263.641 568.846 254.312C568.263 244.983 551.937 189.01 551.937 189.01L581.09 172.684L588.515 164.259L609.076 197.172L627.734 174.433C627.734 174.433 618.516 167.184 618.461 161.48Z" fill="#3F3D56"/>
<path d="M676.711 236.237L680.209 254.895C680.209 254.895 695.952 313.201 693.619 333.024C693.619 333.024 695.369 377.337 685.457 372.089C675.545 366.842 680.792 334.774 680.792 334.774L666.799 277.051L659.219 243.234L676.711 236.237Z" fill="#AF6E51"/>
<path d="M662.134 187.844L667.965 191.342C667.965 191.342 690.121 237.403 684.874 240.902C679.626 244.4 656.887 251.98 656.887 251.98L662.134 187.844Z" fill="#3F3D56"/>
<path d="M565.93 189.01L552.228 188.718L549.022 194.257L553.103 250.814L574.093 255.478L565.93 189.01Z" fill="#3F3D56"/>
<path d="M618.306 113.088L622.93 111.407C622.93 111.407 613.262 101.738 599.81 102.579L603.593 98.7959C603.593 98.7959 594.345 95.4329 585.938 104.261C581.518 108.901 576.404 114.356 573.217 120.501H568.265L570.331 124.634L563.098 128.768L570.522 128.025C569.819 131.594 570.061 135.285 571.225 138.731L572.906 143.355C572.906 143.355 579.632 129.903 579.632 128.222V132.425C579.632 132.425 584.256 128.642 584.256 126.12L586.778 129.062L588.039 124.438L603.593 129.062L601.071 125.279L610.74 126.54L606.956 121.916C606.956 121.916 617.886 127.381 618.306 132.005C618.727 136.629 621.612 142.657 621.612 142.657L625.11 138.575C625.11 138.575 630.497 119.394 618.306 113.088Z" fill="#2F2E41"/>
<path d="M618.988 140.325C620.115 140.325 621.029 137.975 621.029 135.077C621.029 132.179 620.115 129.83 618.988 129.83C617.861 129.83 616.948 132.179 616.948 135.077C616.948 137.975 617.861 140.325 618.988 140.325Z" fill="#FFB8B8"/>
<path d="M45.634 530.016C58.0624 553.065 84.44 562.96 84.44 562.96C84.44 562.96 90.6671 535.484 78.2387 512.435C65.8103 489.386 39.4327 479.492 39.4327 479.492C39.4327 479.492 33.2056 506.967 45.634 530.016Z" fill="#3F3D56"/>
<path d="M54.1765 522.433C76.6149 535.933 85.2567 562.747 85.2567 562.747C85.2567 562.747 57.5186 567.674 35.0802 554.174C12.6417 540.675 4 513.861 4 513.861C4 513.861 31.7381 508.934 54.1765 522.433Z" fill="#575A89"/>
<path d="M411.75 546.675C417.825 546.675 422.75 541.75 422.75 535.675C422.75 529.6 417.825 524.675 411.75 524.675C405.675 524.675 400.75 529.6 400.75 535.675C400.75 541.75 405.675 546.675 411.75 546.675Z" fill="white"/>
<path d="M539.565 178L542.258 256.029L510.201 257.135L508.634 211.738L476.577 212.844L478.143 258.246L446.088 259.352L443.395 181.319L539.565 178ZM542.796 271.637L545.489 349.668L517.614 350.63L516.047 305.231L510.472 305.423L512.039 350.822L447.924 353.035L445.232 275.006L474.504 273.996L476.071 319.395L481.646 319.202L480.079 273.799L542.796 271.635L542.796 271.637ZM546.028 365.276L548.721 443.307L520.845 444.269L519.278 398.869L513.704 399.062L515.27 444.461L451.156 446.674L448.463 368.643L477.736 367.632L479.303 413.032L484.877 412.839L483.311 367.442L546.028 365.278L546.028 365.276Z" fill="#2965F1"/>
<path d="M208 455.327L240.208 455.145L240.384 486.406L269.848 486.24L269.672 454.979L301.882 454.798L302.416 549.464L270.207 549.646L270.029 517.946L240.565 518.112L240.744 549.812L208.535 549.993L208.002 455.327L208 455.327ZM344.412 485.953L316.061 486.113L315.885 454.719L404.817 454.218L404.994 485.611L376.626 485.771L376.983 549.044L344.774 549.225L344.418 485.953L344.412 485.953ZM418.931 454.138L452.514 453.949L473.36 487.096L493.812 453.716L527.409 453.527L527.942 548.193L495.865 548.374L495.601 501.452L473.632 535.236L473.076 535.239L450.714 501.705L450.978 548.627L419.464 548.805L418.931 454.138ZM543.438 453.437L575.656 453.255L576.013 516.631L621.307 516.376L621.483 547.666L543.969 548.103L543.436 453.437L543.438 453.437Z" fill="#E44D26"/>
</g>
<defs>
<filter id="filter0_d_2_2" x="0" y="0" width="888" height="573" filterUnits="userSpaceOnUse" color-interpolation-filters="sRGB">
<feFlood flood-opacity="0" result="BackgroundImageFix"/>
<feColorMatrix in="SourceAlpha" type="matrix" values="0 0 0 0 0 0 0 0 0 0 0 0 0 0 0 0 0 0 127 0" result="hardAlpha"/>
<feOffset dy="4"/>
<feGaussianBlur stdDeviation="2"/>
<feComposite in2="hardAlpha" operator="out"/>
<feColorMatrix type="matrix" values="0 0 0 0 0 0 0 0 0 0 0 0 0 0 0 0 0 0 0.25 0"/>
<feBlend mode="normal" in2="BackgroundImageFix" result="effect1_dropShadow_2_2"/>
<feBlend mode="normal" in="SourceGraphic" in2="effect1_dropShadow_2_2" result="shape"/>
</filter>
</defs>
</svg>
