<svg xmlns="http://www.w3.org/2000/svg" enable-background="new 0 0 66 66" viewBox="0 0 66 66"><path fill="#3590CE" d="M63.99782,33.25417c0,17.11822-13.87907,30.99729-30.99728,30.99729
				c-17.12365,0-31.00272-13.87907-31.00272-30.99729c0-17.12365,13.87907-31.00271,31.00272-31.00271
				C50.11876,2.25145,63.99782,16.13052,63.99782,33.25417z"/><path fill="#D6EBF7" d="M55.77782,54.28142c-5.66998,6.13-13.77997,9.97004-22.77997,9.97004s-17.10999-3.84003-22.78003-9.97004
				c3.42004-0.39001,6.92004-0.62,9.58002-2.76001c3.35999-2.69,2.40002-8.27997,2.40002-12.63995h21.58997
				c0,4.34998-0.94,9.94995,2.40002,12.63C48.85784,53.65142,52.35784,53.89141,55.77782,54.28142z"/><path fill="#F1AD7E" d="M47.21566,38.83954c-0.02061,2.26648-0.27022,4.53094-0.74376,6.74756
				c-0.21041,0.98491-0.46954,1.97234-0.95464,2.85495c-0.4483,0.81567-1.07543,1.51643-1.6969,2.2093
				c-0.80555,0.8981-4.46793,4.27325-5.49297,5.05175c-0.78127,0.59336-1.57111,1.19189-2.4654,1.59524
				c-0.8943,0.40335-4.83574,0.40335-5.73004,0c-0.8943-0.40335-1.68414-1.00187-2.46541-1.59524
				c-1.02504-0.7785-4.68742-4.15365-5.49297-5.05175c-0.62147-0.69287-1.2486-1.39363-1.6969-2.2093
				c-0.48509-0.88261-0.74423-1.87004-0.95464-2.85495c-0.47354-2.21662-0.72311-4.48108-0.74374-6.74756
				C18.77831,13.94973,47.21566,13.94973,47.21566,38.83954z"/><path fill="#FFF" d="M38.77009 49.36987c-.20114.11605-.35582.19339-.35582.19339-.82.58019-1.86437 1.28418-2.42133 1.49302-.7504.27078-2.36717.36361-3.16399.36361-.79677 0-2.41358-.09283-3.16394-.36361-.56475-.20884-1.60907-.91282-2.42133-1.49302 0 0-.15473-.07734-.35587-.19339-.39454-.22432-.96698-.58793-.85867-.75035 1.24546-1.98812 3.42698-.21663 6.7998-.21663 3.36508 0 5.54659-1.77149 6.7998.21663C39.72933 48.78194 39.16463 49.14555 38.77009 49.36987zM21.72631 38.32747c0 0 2.41829 5.72866 7.88303 2.74499C27.1567 38.24421 24.52131 37.41341 21.72631 38.32747zM44.26766 38.32747c0 0-2.41829 5.72866-7.88303 2.74499C38.83727 38.24421 41.47266 37.41341 44.26766 38.32747z"/><path fill="#D6EBF7" d="M47.25625,24.01882V34.1665l-9.05327,3.74735l-2.91556,4.94691h-4.57919l-2.91556-4.94691
				l-9.05327-3.74735V24.01882c0-4.63229,3.32473-8.48805,7.71811-9.31119c3.08528-0.57806,5.11854-1.98341,6.53597-2.65769
				c1.44272,0.68588,3.46967,2.08437,6.53646,2.65615C43.92738,15.52597,47.25625,19.38365,47.25625,24.01882z"/><path fill="#D6EBF7" d="M12.15586,1.75145l6.40136,12.80271c0.56998,1.13996,0.86671,2.39696,0.86671,3.67147v18.9341
				c0,3.70292,1.54873,7.23707,4.27128,9.74693l1.8492,1.70473v8.98946h-0.00001c-5.15478,0-9.33355-4.17877-9.33355-9.33355
				V20.6629l-5.58983-10.5786L12.15586,1.75145z"/><polygon fill="#D6EBF7" points="11.988 12.672 11.365 18.516 16.211 25.822 16.211 20.663"/><polygon fill="#D6EBF7" points="11.988 19.473 11.365 25.8 16.211 33.107 16.211 25.822"/><polygon fill="#D6EBF7" points="16.211 40.391 11.365 33.085 11.988 26.757 16.211 33.107"/><polygon fill="#D6EBF7" points="16.211 47.676 11.365 40.369 11.988 34.042 16.211 40.391"/><path fill="#D6EBF7" d="M53.83978,1.75145l-6.40136,12.80271c-0.56998,1.13996-0.86671,2.39696-0.86671,3.67147v18.9341
				c0,3.70292-1.54873,7.23707-4.27128,9.74693l-1.8492,1.70473v8.98946h0.00001c5.15478,0,9.33355-4.17877,9.33355-9.33355V20.6629
				l5.58983-10.5786L53.83978,1.75145z"/><polygon fill="#D6EBF7" points="54.007 12.672 54.63 18.516 49.785 25.822 49.785 20.663"/><polygon fill="#D6EBF7" points="54.007 19.473 54.63 25.8 49.785 33.107 49.785 25.822"/><polygon fill="#D6EBF7" points="49.785 40.391 54.63 33.085 54.007 26.757 49.785 33.107"/><polygon fill="#D6EBF7" points="49.785 47.676 54.63 40.369 54.007 34.042 49.785 40.391"/><polyline fill="#D6EBF7" points="46.572 29.227 36.304 32.974 32.998 37.921 29.691 32.974 19.424 29.227"/><path fill="#172540" d="M55.70001,11.0843c0.80854-1.78241,0.47387,0.89618-1.12-9.46997
				c-0.06-0.32001-0.32001-0.56-0.63-0.60999C53.63,0.95429,53.31,1.12434,53.16998,1.41431L50.48999,6.7743
				C45.47003,3.44428,39.46002,1.50434,33,1.50434c-6.45996,0-12.46997,1.93994-17.48999,5.26996l-2.67999-5.35999
				C12.67999,1.12434,12.38,0.95429,12.04999,1.00434c-0.31995,0.04999-0.56995,0.28998-0.63,0.60999
				c-1.58037,10.23991-1.9513,7.67792-1.12,9.46997C4.70001,16.80433,1.25,24.63428,1.25,33.25434
				c0,17.22245,13.91965,31.75,31.75,31.75c17.66785,0,31.75-14.37457,31.75-31.75
				C64.75,24.63428,61.29999,16.80433,55.70001,11.0843z M63.25,33.25434c0,7.77997-2.95001,14.87-7.78998,20.23999
				c-1.94645-0.21524-4.01589-0.41226-5.85004-1.02002c1.07819-2.33908,0.90003-4.36108,0.92004-4.56
				c4.82198-7.39174,4.88-7.11017,4.84998-7.62l-0.60999-6.08002L55.25,33.49433c0.10004-0.14001,0.14001-0.31,0.13-0.48004
				l-0.60999-6.07996c1.13094-1.89715,0.43554,0.49857,0-7.28003c1.12935-1.89437,0.43982,0.38938,0-6.83002l0.19-0.33997
				C60.10004,17.9043,63.25,25.2143,63.25,33.25434z M53.47003,36.20429l0.38995,3.97003l-3.32996,5.01001
				c0-0.6705,0-4.80721,0-4.57001C50.59753,40.51308,53.66567,35.91083,53.47003,36.20429z M53.47003,28.92432l0.38995,3.96997
				c-0.06736,0.10134-3.54932,5.34004-3.32996,5.01001c0-0.6705,0-4.80721,0-4.57001
				C50.59753,33.23305,53.66568,28.63086,53.47003,28.92432z M53.47003,21.64429l0.38995,3.96002l-3.32996,5.01001
				c0-0.6705,0-4.80721,0-4.57001C50.59763,25.94314,53.66313,21.3553,53.47003,21.64429z M53.52002,15.19428l0.33997,3.13
				c-0.06736,0.10134-3.54932,5.34004-3.32996,5.01001v-2.48999L53.52002,15.19428z M53.51001,4.09431l1.08002,5.87
				c-0.05382,0.10157-1.32022,2.49143-1.23999,2.34003c0,0.01001-0.01001,0.01001-0.01001,0.01996
				c-4.30265,8.20602-4.31,8.01095-4.31,8.34003c0,22.90088,0-11.28363,0,27.59998c0,4.49228-3.47607,8.17873-7.83002,8.55005
				c0-0.19561,0-4.91317,0-4.66003v-3.21002c0.43947-0.63026,6.12-4.22395,6.12-11.78998c0-0.30292,0-8.30218,0-7.92999
				c0-17.20517-0.61577-10.4299,3.73999-20.21997C51.11227,8.89958,53.67368,3.7663,53.51001,4.09431z M21.56,42.89429
				c-1.79276-3.48606-1.31112-6.42322-1.39001-7.32001l4,1.66003c-1.28034-0.05826-3.63858,0.19601-3.13995,1.38
				c0.01996,0.04999,0.15997,0.37,0.42999,0.81c0.32001,0.52997,0.83002,1.23999,1.54999,1.85999v0.01001
				c0.87,0.76001,2.07001,1.39001,3.59998,1.39001c0.88,0,1.79004-0.22003,2.74005-0.65002
				c0.60238,0.87322,0.67281,1.58002,1.35999,1.58002c4.2186-0.11604,4.8516,0.28165,5.21997-0.37l0.71002-1.21002
				c5.38485,2.46323,8.74197-3.10833,8.31-4.02002c-0.32498-0.68587-2.37497-0.81472-3.13-0.77997l4-1.66003
				c-0.08004,0.9238,0.51327,5.52424-2.88,9.55005c-0.77155,0.97002-1.24924,1.28929-2.87,2.81995h-0.00549
				c-0.80246-1.03483-1.86501-1.11515-3.12451-0.92999c-4.91583,0.97628-4.21869,0.71407-8.19,0.01001
				c-0.01001,0-0.02997,0-0.03998-0.01001c-1.15423-0.17483-2.18208-0.12296-2.97784,0.76001h-0.00214
				C24.17829,46.30281,22.80943,45.27389,21.56,42.89429z M26.60004,15.44428c2.50995-0.46997,4.35999-1.46997,5.70996-2.18994
				c0.23999-0.13,0.47003-0.26001,0.67999-0.37006c0.23004,0.12006,0.46002,0.24005,0.71002,0.38
				c1.34998,0.72003,3.20001,1.71002,5.69,2.17999c2.95001,0.55005,5.33002,2.55005,6.42999,5.19c0,0.15761,0,8.32574,0,8.07001
				c-10.65397,3.89301-9.93993,3.5611-10.14001,3.85004L33,36.57429c-2.86546-4.19944-2.66136-4.1705-3.04999-4.29999
				c-1.00001-0.36503,3.62257,1.32235-9.78003-3.57001c0-0.59189,0-8.17389,0-8.04999
				C21.27002,18.01429,23.64001,15.99433,26.60004,15.44428z M37.64001,40.8343c1.96379-1.92448,3.78656-2.3337,5.5-2.01996
				C42.29243,40.1389,39.9724,41.7139,37.64001,40.8343z M37.56,37.53431c-0.0594,0.1006-1.31979,2.23512-1.23999,2.09998
				l-1.46002,2.48004h-3.71997c-0.06057-0.10259-2.50243-4.23825-2.34998-3.98004c-1.03777-1.57515,0.99153,0.11964-8.62006-4.19
				c0-0.20988,0-3.77344,0-3.64996c0.10044,0.03671,9.63788,3.52213,9.03003,3.29999
				c0.06731,0.10065,3.38092,5.0554,3.16998,4.73999c0.14001,0.21002,0.38,0.34003,0.63,0.34003
				c0.67754,0,0.51723-0.38348,3.79004-5.08002c0.10048-0.03661,9.63804-3.51152,9.02997-3.28998c0,0.16099,0,3.86467,0,3.64996
				C37.67508,37.37955,37.77856,37.15187,37.56,37.53431z M22.85004,38.81434c1.73732-0.31812,3.56126,0.11029,5.50995,2.01996
				c-1.81462,0.68435-3.4474,0.3988-4.87994-1.20001C23.22003,39.34431,23.01001,39.06434,22.85004,38.81434z M34.49603,49.01868
				c0.22052-0.03186,0.43024-0.0672,0.63635-0.10535c1.83816-0.34361,2.82373-0.70957,3.46753-0.30896
				c-1.40339,0.60128-1.78896,2.06995-5.7699,2.06995c-2.84689,0-3.02539-0.25067-5.7641-2.07648
				C28.20658,47.9075,30.65693,49.60397,34.49603,49.01868z M26.29004,49.89429c2.6871,1.53816,2.54195,2.28003,6.53998,2.28003
				c3.60694,0,3.81152-0.58279,6.55597-2.29755c0.0694,0.14685,0.17871,0.26056,0.31403,0.33441v3.32312
				C35.71032,57.16593,35.02937,56.85432,33,56.85432c-2.10545,0-2.66852,0.31239-6.70996-3.32001V49.89429z M33,3.00434
				c6.22003,0,12.01001,1.88995,16.82001,5.12c-2.46857,5.2835-3.83499,6.67589-3.97998,9.59997
				c-1.48999-1.90997-3.65002-3.28003-6.17004-3.76001c-2.26996-0.41998-3.92999-1.31-5.25995-2.02002
				c-0.40002-0.21997-0.76001-0.40997-1.10004-0.56995c-0.20001-0.10004-0.44-0.10004-0.64001,0
				c-0.31995,0.14996-0.67999,0.33997-1.06995,0.56c-1.34003,0.71997-3,1.60999-5.28003,2.03998
				c-2.52002,0.46997-4.66998,1.84003-6.15997,3.75c-0.17232-2.97844-1.47617-4.22729-3.98004-9.59997
				C20.98999,4.8943,26.78003,3.00434,33,3.00434z M11.41003,9.9643l1.07996-5.87c0.05227,0.10476,2.61368,5.23804,2.45001,4.91003
				c2.29607,4.96764,3.72998,6.36709,3.72998,9.21997c0,23.22425-1.35293,23.43007,6.12006,30.71997c0,0.1713,0,8.31762,0,7.87006
				c-3.17825-0.27105-5.82916-2.31279-7.01001-4.90002c-0.53003-1.09998-0.82001-2.34003-0.82001-3.65002
				c0-0.27189,0-8.35923,0-7.87c0-21.04836,0.04999-19.82329-0.09003-20.07996C16.31172,19.25605,18.89239,24.14804,11.41003,9.9643
				z M15.46002,20.84431v2.48999l-3.32001-5.01001l0.33002-3.13L15.46002,20.84431z M15.46002,30.61433l-3.32001-5.01001
				l0.39001-3.96002l2.92999,4.39001C15.46002,26.41373,15.46002,30.71701,15.46002,30.61433z M15.46002,33.32429
				c0,0.37943,0,4.6827,0,4.58002l-3.32001-5.01001l0.39001-3.96997L15.46002,33.32429z M12.53003,36.20429l2.92999,4.40002v0.01001
				v4.57001l-3.32001-5.01001L12.53003,36.20429z M11.04004,12.48432l0.17999,0.33002
				c-0.57124,5.87968-0.74233,5.72641-0.48004,6.11999l0.48004,0.71997L10.62,25.72431
				c-0.01996,0.16998,0.02002,0.34998,0.12,0.48999l0.48004,0.72003L10.62,33.01429c-0.01996,0.17004,0.02002,0.34003,0.12,0.48004
				l0.48004,0.71997L10.62,40.29432c-0.01996,0.16998,0.02002,0.34998,0.12,0.48999l4.72003,7.10999v0.37
				c0,1.5,0.33002,2.92999,0.92999,4.21002c-1.81404,0.6083-3.91049,0.80121-5.84998,1.01001
				C5.69,48.12434,2.75,41.0243,2.75,33.25434C2.75,25.2143,5.90002,17.9043,11.04004,12.48432z M53.29004,55.66431
				C47.52839,60.96458,39.98006,63.50434,33,63.50434c-8.63211,0-16.23638-3.73533-21.14996-8.65002
				c1.78998-0.21002,3.59998-0.46002,5.27997-1.04999c1.79999,2.73999,4.90002,4.54999,8.41003,4.54999
				c1.17314,0,0.61923-1.70255,0.75-2.82001c3.0152,2.62916,4.00349,2.82001,6.70996,2.82001
				c2.69164,0,3.65061-0.16145,6.70001-2.82001c0.12906,1.07032-0.42085,2.82001,0.75,2.82001
				c3.51001,0,6.60999-1.81,8.41998-4.54999c1.67999,0.58997,3.48999,0.83997,5.28003,1.04999
				C54.04422,54.95501,53.39643,55.61104,53.29004,55.66431z"/></svg>